# MagicaVoxel @ Ephtracy

# group
o 

# material
mtllib AdvancedSword.mtl
usemtl palette

# normals
vn -1 0 0
vn 1 0 0
vn 0 0 1
vn 0 0 -1
vn 0 -1 0
vn 0 1 0

# texcoords
vt 0.0644531 0.5
vt 0.0683594 0.5
vt 0.158203 0.5
vt 0.162109 0.5
vt 0.197266 0.5
vt 0.970703 0.5
vt 0.974609 0.5
vt 0.978516 0.5
vt 0.982422 0.5

# verts
v -0.4 3 -0.5
v -0.4 3 -0.6
v -0.4 3.3 -0.5
v -0.4 3.3 -0.6
v -0.4 3.4 -0.5
v -0.4 3.4 -0.6
v -0.2 1.9 -0.5
v -0.2 1.9 -0.6
v -0.2 3 -0.5
v -0.2 3 -0.6
v -0.1 1.7 -0.5
v -0.1 1.7 -0.6
v -0.1 1.9 -0.5
v -0.1 1.9 -0.6
v -0.1 3 -0.5
v -0.1 3 -0.6
v -0.1 3.1 -0.4
v -0.1 3.1 -0.5
v -0.1 3.1 -0.6
v -0.1 3.1 -0.7
v -0.1 3.2 -0.5
v -0.1 3.2 -0.6
v -0.1 3.3 -0.4
v -0.1 3.3 -0.5
v -0.1 3.3 -0.6
v -0.1 3.3 -0.7
v -0.1 3.4 -0.5
v -0.1 3.4 -0.6
v -0.1 3.7 -0.5
v -0.1 3.7 -0.6
v -0.1 3.8 -0.5
v -0.1 3.8 -0.6
v 0 1.5 -0.5
v 0 1.5 -0.6
v 0 1.7 -0.5
v 0 1.7 -0.6
v 0 3 -0.4
v 0 3 -0.5
v 0 3 -0.6
v 0 3 -0.7
v 0 3.1 -0.4
v 0 3.1 -0.5
v 0 3.1 -0.6
v 0 3.1 -0.7
v 0 3.3 -0.4
v 0 3.3 -0.5
v 0 3.3 -0.6
v 0 3.3 -0.7
v 0 3.4 -0.4
v 0 3.4 -0.5
v 0 3.4 -0.6
v 0 3.4 -0.7
v 0 3.5 -0.5
v 0 3.5 -0.6
v 0 3.6 -0.5
v 0 3.6 -0.6
v 0 3.7 -0.5
v 0 3.7 -0.6
v 0 3.8 -0.5
v 0 3.8 -0.6
v 0 3.9 -0.5
v 0 3.9 -0.6
v 0.4 3 -0.5
v 0.4 3 -0.6
v 0.4 3.2 -0.5
v 0.4 3.2 -0.6
v 0.4 3.3 -0.5
v 0.4 3.3 -0.6
v 0.4 3.4 -0.5
v 0.4 3.4 -0.6
v -0.3 3 -0.5
v -0.3 3 -0.6
v -0.3 3.2 -0.5
v -0.3 3.2 -0.6
v -0.3 3.3 -0.5
v -0.3 3.3 -0.6
v -0.3 3.4 -0.5
v -0.3 3.4 -0.6
v 0.1 1.5 -0.5
v 0.1 1.5 -0.6
v 0.1 1.7 -0.5
v 0.1 1.7 -0.6
v 0.1 3 -0.4
v 0.1 3 -0.5
v 0.1 3 -0.6
v 0.1 3 -0.7
v 0.1 3.1 -0.4
v 0.1 3.1 -0.5
v 0.1 3.1 -0.6
v 0.1 3.1 -0.7
v 0.1 3.3 -0.4
v 0.1 3.3 -0.5
v 0.1 3.3 -0.6
v 0.1 3.3 -0.7
v 0.1 3.4 -0.4
v 0.1 3.4 -0.5
v 0.1 3.4 -0.6
v 0.1 3.4 -0.7
v 0.1 3.5 -0.5
v 0.1 3.5 -0.6
v 0.1 3.6 -0.5
v 0.1 3.6 -0.6
v 0.1 3.7 -0.5
v 0.1 3.7 -0.6
v 0.1 3.8 -0.5
v 0.1 3.8 -0.6
v 0.1 3.9 -0.5
v 0.1 3.9 -0.6
v 0.2 1.7 -0.5
v 0.2 1.7 -0.6
v 0.2 1.9 -0.5
v 0.2 1.9 -0.6
v 0.2 3 -0.5
v 0.2 3 -0.6
v 0.2 3.1 -0.4
v 0.2 3.1 -0.5
v 0.2 3.1 -0.6
v 0.2 3.1 -0.7
v 0.2 3.2 -0.5
v 0.2 3.2 -0.6
v 0.2 3.3 -0.4
v 0.2 3.3 -0.5
v 0.2 3.3 -0.6
v 0.2 3.3 -0.7
v 0.2 3.4 -0.5
v 0.2 3.4 -0.6
v 0.2 3.7 -0.5
v 0.2 3.7 -0.6
v 0.2 3.8 -0.5
v 0.2 3.8 -0.6
v 0.3 1.9 -0.5
v 0.3 1.9 -0.6
v 0.3 3 -0.5
v 0.3 3 -0.6
v 0.5 3 -0.5
v 0.5 3 -0.6
v 0.5 3.3 -0.5
v 0.5 3.3 -0.6
v 0.5 3.4 -0.5
v 0.5 3.4 -0.6
v -0.1 3.1 -0.4
v -0.1 3.3 -0.4
v 0 3 -0.4
v 0 3.1 -0.4
v 0 3.2 -0.4
v 0 3.3 -0.4
v 0 3.4 -0.4
v 0.1 3 -0.4
v 0.1 3.1 -0.4
v 0.1 3.2 -0.4
v 0.1 3.3 -0.4
v 0.1 3.4 -0.4
v 0.2 3.1 -0.4
v 0.2 3.3 -0.4
v -0.4 3 -0.5
v -0.4 3.3 -0.5
v -0.4 3.4 -0.5
v -0.3 3 -0.5
v -0.3 3.2 -0.5
v -0.3 3.3 -0.5
v -0.3 3.4 -0.5
v -0.2 1.9 -0.5
v -0.2 3 -0.5
v -0.1 1.7 -0.5
v -0.1 1.9 -0.5
v -0.1 3 -0.5
v -0.1 3.1 -0.5
v -0.1 3.2 -0.5
v -0.1 3.3 -0.5
v -0.1 3.4 -0.5
v -0.1 3.7 -0.5
v -0.1 3.8 -0.5
v 0 1.5 -0.5
v 0 1.7 -0.5
v 0 1.9 -0.5
v 0 2.5 -0.5
v 0 2.8 -0.5
v 0 3 -0.5
v 0 3.1 -0.5
v 0 3.3 -0.5
v 0 3.4 -0.5
v 0 3.5 -0.5
v 0 3.6 -0.5
v 0 3.7 -0.5
v 0 3.8 -0.5
v 0 3.9 -0.5
v 0.1 1.5 -0.5
v 0.1 1.7 -0.5
v 0.1 1.9 -0.5
v 0.1 2.5 -0.5
v 0.1 2.8 -0.5
v 0.1 3 -0.5
v 0.1 3.1 -0.5
v 0.1 3.3 -0.5
v 0.1 3.4 -0.5
v 0.1 3.5 -0.5
v 0.1 3.6 -0.5
v 0.1 3.7 -0.5
v 0.1 3.8 -0.5
v 0.1 3.9 -0.5
v 0.2 1.7 -0.5
v 0.2 1.9 -0.5
v 0.2 3 -0.5
v 0.2 3.1 -0.5
v 0.2 3.2 -0.5
v 0.2 3.3 -0.5
v 0.2 3.4 -0.5
v 0.2 3.7 -0.5
v 0.2 3.8 -0.5
v 0.3 1.9 -0.5
v 0.3 3 -0.5
v 0.4 3 -0.5
v 0.4 3.2 -0.5
v 0.4 3.3 -0.5
v 0.4 3.4 -0.5
v 0.5 3 -0.5
v 0.5 3.3 -0.5
v 0.5 3.4 -0.5
v -0.4 3 -0.6
v -0.4 3.3 -0.6
v -0.4 3.4 -0.6
v -0.3 3 -0.6
v -0.3 3.2 -0.6
v -0.3 3.3 -0.6
v -0.3 3.4 -0.6
v -0.2 1.9 -0.6
v -0.2 3 -0.6
v -0.1 1.7 -0.6
v -0.1 1.9 -0.6
v -0.1 3 -0.6
v -0.1 3.1 -0.6
v -0.1 3.2 -0.6
v -0.1 3.3 -0.6
v -0.1 3.4 -0.6
v -0.1 3.7 -0.6
v -0.1 3.8 -0.6
v 0 1.5 -0.6
v 0 1.7 -0.6
v 0 1.9 -0.6
v 0 2.5 -0.6
v 0 2.8 -0.6
v 0 3 -0.6
v 0 3.1 -0.6
v 0 3.3 -0.6
v 0 3.4 -0.6
v 0 3.5 -0.6
v 0 3.6 -0.6
v 0 3.7 -0.6
v 0 3.8 -0.6
v 0 3.9 -0.6
v 0.1 1.5 -0.6
v 0.1 1.7 -0.6
v 0.1 1.9 -0.6
v 0.1 2.5 -0.6
v 0.1 2.8 -0.6
v 0.1 3 -0.6
v 0.1 3.1 -0.6
v 0.1 3.3 -0.6
v 0.1 3.4 -0.6
v 0.1 3.5 -0.6
v 0.1 3.6 -0.6
v 0.1 3.7 -0.6
v 0.1 3.8 -0.6
v 0.1 3.9 -0.6
v 0.2 1.7 -0.6
v 0.2 1.9 -0.6
v 0.2 3 -0.6
v 0.2 3.1 -0.6
v 0.2 3.2 -0.6
v 0.2 3.3 -0.6
v 0.2 3.4 -0.6
v 0.2 3.7 -0.6
v 0.2 3.8 -0.6
v 0.3 1.9 -0.6
v 0.3 3 -0.6
v 0.4 3 -0.6
v 0.4 3.2 -0.6
v 0.4 3.3 -0.6
v 0.4 3.4 -0.6
v 0.5 3 -0.6
v 0.5 3.3 -0.6
v 0.5 3.4 -0.6
v -0.1 3.1 -0.7
v -0.1 3.3 -0.7
v 0 3 -0.7
v 0 3.1 -0.7
v 0 3.2 -0.7
v 0 3.3 -0.7
v 0 3.4 -0.7
v 0.1 3 -0.7
v 0.1 3.1 -0.7
v 0.1 3.2 -0.7
v 0.1 3.3 -0.7
v 0.1 3.4 -0.7
v 0.2 3.1 -0.7
v 0.2 3.3 -0.7
v 0 1.5 -0.5
v 0.1 1.5 -0.5
v 0 1.5 -0.6
v 0.1 1.5 -0.6
v -0.1 1.7 -0.5
v 0 1.7 -0.5
v 0.1 1.7 -0.5
v 0.2 1.7 -0.5
v -0.1 1.7 -0.6
v 0 1.7 -0.6
v 0.1 1.7 -0.6
v 0.2 1.7 -0.6
v -0.2 1.9 -0.5
v -0.1 1.9 -0.5
v 0.2 1.9 -0.5
v 0.3 1.9 -0.5
v -0.2 1.9 -0.6
v -0.1 1.9 -0.6
v 0.2 1.9 -0.6
v 0.3 1.9 -0.6
v 0 3 -0.4
v 0.1 3 -0.4
v -0.4 3 -0.5
v -0.3 3 -0.5
v 0 3 -0.5
v 0.1 3 -0.5
v 0.4 3 -0.5
v 0.5 3 -0.5
v -0.4 3 -0.6
v -0.3 3 -0.6
v 0 3 -0.6
v 0.1 3 -0.6
v 0.4 3 -0.6
v 0.5 3 -0.6
v 0 3 -0.7
v 0.1 3 -0.7
v -0.1 3.1 -0.4
v 0 3.1 -0.4
v 0.1 3.1 -0.4
v 0.2 3.1 -0.4
v -0.1 3.1 -0.5
v 0 3.1 -0.5
v 0.1 3.1 -0.5
v 0.2 3.1 -0.5
v -0.1 3.1 -0.6
v 0 3.1 -0.6
v 0.1 3.1 -0.6
v 0.2 3.1 -0.6
v -0.1 3.1 -0.7
v 0 3.1 -0.7
v 0.1 3.1 -0.7
v 0.2 3.1 -0.7
v -0.3 3.2 -0.5
v -0.1 3.2 -0.5
v 0.2 3.2 -0.5
v 0.4 3.2 -0.5
v -0.3 3.2 -0.6
v -0.1 3.2 -0.6
v 0.2 3.2 -0.6
v 0.4 3.2 -0.6
v -0.1 3.7 -0.5
v 0 3.7 -0.5
v 0.1 3.7 -0.5
v 0.2 3.7 -0.5
v -0.1 3.7 -0.6
v 0 3.7 -0.6
v 0.1 3.7 -0.6
v 0.2 3.7 -0.6
v -0.2 3 -0.5
v -0.1 3 -0.5
v 0.2 3 -0.5
v 0.3 3 -0.5
v -0.2 3 -0.6
v -0.1 3 -0.6
v 0.2 3 -0.6
v 0.3 3 -0.6
v -0.1 3.3 -0.4
v 0 3.3 -0.4
v 0.1 3.3 -0.4
v 0.2 3.3 -0.4
v -0.3 3.3 -0.5
v -0.1 3.3 -0.5
v 0 3.3 -0.5
v 0.1 3.3 -0.5
v 0.2 3.3 -0.5
v 0.4 3.3 -0.5
v -0.3 3.3 -0.6
v -0.1 3.3 -0.6
v 0 3.3 -0.6
v 0.1 3.3 -0.6
v 0.2 3.3 -0.6
v 0.4 3.3 -0.6
v -0.1 3.3 -0.7
v 0 3.3 -0.7
v 0.1 3.3 -0.7
v 0.2 3.3 -0.7
v 0 3.4 -0.4
v 0.1 3.4 -0.4
v -0.4 3.4 -0.5
v -0.3 3.4 -0.5
v -0.1 3.4 -0.5
v 0 3.4 -0.5
v 0.1 3.4 -0.5
v 0.2 3.4 -0.5
v 0.4 3.4 -0.5
v 0.5 3.4 -0.5
v -0.4 3.4 -0.6
v -0.3 3.4 -0.6
v -0.1 3.4 -0.6
v 0 3.4 -0.6
v 0.1 3.4 -0.6
v 0.2 3.4 -0.6
v 0.4 3.4 -0.6
v 0.5 3.4 -0.6
v 0 3.4 -0.7
v 0.1 3.4 -0.7
v -0.1 3.8 -0.5
v 0 3.8 -0.5
v 0.1 3.8 -0.5
v 0.2 3.8 -0.5
v -0.1 3.8 -0.6
v 0 3.8 -0.6
v 0.1 3.8 -0.6
v 0.2 3.8 -0.6
v 0 3.9 -0.5
v 0.1 3.9 -0.5
v 0 3.9 -0.6
v 0.1 3.9 -0.6

# faces
f 3/3/1 2/3/1 1/3/1
f 4/3/1 2/3/1 3/3/1
f 5/1/1 4/1/1 3/1/1
f 6/1/1 4/1/1 5/1/1
f 9/6/1 8/6/1 7/6/1
f 10/6/1 8/6/1 9/6/1
f 13/6/1 12/6/1 11/6/1
f 14/6/1 12/6/1 13/6/1
f 18/6/1 16/6/1 15/6/1
f 19/6/1 16/6/1 18/6/1
f 21/6/1 19/6/1 18/6/1
f 21/1/1 18/1/1 17/1/1
f 22/1/1 20/1/1 19/1/1
f 22/6/1 19/6/1 21/6/1
f 23/1/1 21/1/1 17/1/1
f 24/1/1 21/1/1 23/1/1
f 25/1/1 20/1/1 22/1/1
f 26/1/1 20/1/1 25/1/1
f 27/3/1 25/3/1 24/3/1
f 28/3/1 25/3/1 27/3/1
f 31/3/1 30/3/1 29/3/1
f 32/3/1 30/3/1 31/3/1
f 35/6/1 34/6/1 33/6/1
f 36/6/1 34/6/1 35/6/1
f 41/1/1 38/1/1 37/1/1
f 42/1/1 38/1/1 41/1/1
f 43/1/1 40/1/1 39/1/1
f 44/1/1 40/1/1 43/1/1
f 49/1/1 46/1/1 45/1/1
f 50/1/1 46/1/1 49/1/1
f 51/1/1 48/1/1 47/1/1
f 52/1/1 48/1/1 51/1/1
f 53/4/1 51/4/1 50/4/1
f 54/4/1 51/4/1 53/4/1
f 55/5/1 54/5/1 53/5/1
f 56/5/1 54/5/1 55/5/1
f 57/4/1 56/4/1 55/4/1
f 58/4/1 56/4/1 57/4/1
f 61/3/1 60/3/1 59/3/1
f 62/3/1 60/3/1 61/3/1
f 65/3/1 64/3/1 63/3/1
f 66/3/1 64/3/1 65/3/1
f 69/1/1 68/1/1 67/1/1
f 70/1/1 68/1/1 69/1/1
f 71/3/2 72/3/2 73/3/2
f 73/3/2 72/3/2 74/3/2
f 75/1/2 76/1/2 77/1/2
f 77/1/2 76/1/2 78/1/2
f 79/6/2 80/6/2 81/6/2
f 81/6/2 80/6/2 82/6/2
f 83/1/2 84/1/2 87/1/2
f 87/1/2 84/1/2 88/1/2
f 85/1/2 86/1/2 89/1/2
f 89/1/2 86/1/2 90/1/2
f 91/1/2 92/1/2 95/1/2
f 95/1/2 92/1/2 96/1/2
f 93/1/2 94/1/2 97/1/2
f 97/1/2 94/1/2 98/1/2
f 96/4/2 97/4/2 99/4/2
f 99/4/2 97/4/2 100/4/2
f 99/5/2 100/5/2 101/5/2
f 101/5/2 100/5/2 102/5/2
f 101/4/2 102/4/2 103/4/2
f 103/4/2 102/4/2 104/4/2
f 105/3/2 106/3/2 107/3/2
f 107/3/2 106/3/2 108/3/2
f 109/6/2 110/6/2 111/6/2
f 111/6/2 110/6/2 112/6/2
f 113/6/2 114/6/2 116/6/2
f 116/6/2 114/6/2 117/6/2
f 116/6/2 117/6/2 119/6/2
f 115/1/2 116/1/2 119/1/2
f 117/1/2 118/1/2 120/1/2
f 119/6/2 117/6/2 120/6/2
f 115/1/2 119/1/2 121/1/2
f 121/1/2 119/1/2 122/1/2
f 120/1/2 118/1/2 123/1/2
f 123/1/2 118/1/2 124/1/2
f 122/3/2 123/3/2 125/3/2
f 125/3/2 123/3/2 126/3/2
f 127/3/2 128/3/2 129/3/2
f 129/3/2 128/3/2 130/3/2
f 131/6/2 132/6/2 133/6/2
f 133/6/2 132/6/2 134/6/2
f 135/3/2 136/3/2 137/3/2
f 137/3/2 136/3/2 138/3/2
f 137/1/2 138/1/2 139/1/2
f 139/1/2 138/1/2 140/1/2
f 144/1/3 142/1/3 141/1/3
f 145/1/3 142/1/3 144/1/3
f 146/1/3 142/1/3 145/1/3
f 148/1/3 144/1/3 143/1/3
f 148/1/3 145/1/3 144/1/3
f 149/1/3 145/1/3 148/1/3
f 150/2/3 146/2/3 145/2/3
f 150/1/3 145/1/3 149/1/3
f 151/1/3 147/1/3 146/1/3
f 151/2/3 146/2/3 150/2/3
f 152/1/3 147/1/3 151/1/3
f 153/1/3 150/1/3 149/1/3
f 153/1/3 151/1/3 150/1/3
f 154/1/3 151/1/3 153/1/3
f 158/3/3 156/3/3 155/3/3
f 159/3/3 156/3/3 158/3/3
f 160/1/3 157/1/3 156/1/3
f 160/3/3 156/3/3 159/3/3
f 161/1/3 157/1/3 160/1/3
f 165/6/3 163/6/3 162/6/3
f 166/6/3 163/6/3 165/6/3
f 168/3/3 160/3/3 159/3/3
f 169/3/3 160/3/3 168/3/3
f 174/6/3 167/6/3 166/6/3
f 174/6/3 165/6/3 164/6/3
f 174/6/3 166/6/3 165/6/3
f 175/6/3 167/6/3 174/6/3
f 176/6/3 167/6/3 175/6/3
f 177/6/3 167/6/3 176/6/3
f 178/6/3 167/6/3 177/6/3
f 179/6/3 167/6/3 178/6/3
f 180/3/3 170/3/3 169/3/3
f 181/3/3 170/3/3 180/3/3
f 184/3/3 172/3/3 171/3/3
f 185/3/3 172/3/3 184/3/3
f 187/6/3 174/6/3 173/6/3
f 187/6/3 175/6/3 174/6/3
f 188/6/3 175/6/3 187/6/3
f 189/7/3 176/7/3 175/7/3
f 189/6/3 175/6/3 188/6/3
f 190/8/3 177/8/3 176/8/3
f 190/7/3 176/7/3 189/7/3
f 191/9/3 178/9/3 177/9/3
f 191/8/3 177/8/3 190/8/3
f 192/9/3 178/9/3 191/9/3
f 195/4/3 182/4/3 181/4/3
f 196/5/3 183/5/3 182/5/3
f 196/4/3 182/4/3 195/4/3
f 197/4/3 184/4/3 183/4/3
f 197/5/3 183/5/3 196/5/3
f 198/3/3 186/3/3 185/3/3
f 198/4/3 184/4/3 197/4/3
f 198/3/3 185/3/3 184/3/3
f 199/3/3 186/3/3 198/3/3
f 200/3/3 186/3/3 199/3/3
f 201/6/3 192/6/3 191/6/3
f 201/6/3 191/6/3 190/6/3
f 201/6/3 189/6/3 188/6/3
f 201/6/3 193/6/3 192/6/3
f 201/6/3 190/6/3 189/6/3
f 202/6/3 193/6/3 201/6/3
f 203/6/3 193/6/3 202/6/3
f 204/6/3 193/6/3 203/6/3
f 206/3/3 195/3/3 194/3/3
f 207/3/3 195/3/3 206/3/3
f 208/3/3 199/3/3 198/3/3
f 209/3/3 199/3/3 208/3/3
f 210/6/3 203/6/3 202/6/3
f 211/6/3 203/6/3 210/6/3
f 213/3/3 206/3/3 205/3/3
f 214/3/3 206/3/3 213/3/3
f 216/3/3 213/3/3 212/3/3
f 216/3/3 214/3/3 213/3/3
f 217/1/3 215/1/3 214/1/3
f 217/3/3 214/3/3 216/3/3
f 218/1/3 215/1/3 217/1/3
f 219/3/4 220/3/4 222/3/4
f 222/3/4 220/3/4 223/3/4
f 220/1/4 221/1/4 224/1/4
f 223/3/4 220/3/4 224/3/4
f 224/1/4 221/1/4 225/1/4
f 226/6/4 227/6/4 229/6/4
f 229/6/4 227/6/4 230/6/4
f 223/3/4 224/3/4 232/3/4
f 232/3/4 224/3/4 233/3/4
f 230/6/4 231/6/4 238/6/4
f 228/6/4 229/6/4 238/6/4
f 229/6/4 230/6/4 238/6/4
f 238/6/4 231/6/4 239/6/4
f 239/6/4 231/6/4 240/6/4
f 240/6/4 231/6/4 241/6/4
f 241/6/4 231/6/4 242/6/4
f 242/6/4 231/6/4 243/6/4
f 233/3/4 234/3/4 244/3/4
f 244/3/4 234/3/4 245/3/4
f 235/3/4 236/3/4 248/3/4
f 248/3/4 236/3/4 249/3/4
f 237/6/4 238/6/4 251/6/4
f 238/6/4 239/6/4 251/6/4
f 251/6/4 239/6/4 252/6/4
f 239/7/4 240/7/4 253/7/4
f 252/6/4 239/6/4 253/6/4
f 240/8/4 241/8/4 254/8/4
f 253/7/4 240/7/4 254/7/4
f 241/9/4 242/9/4 255/9/4
f 254/8/4 241/8/4 255/8/4
f 255/9/4 242/9/4 256/9/4
f 245/4/4 246/4/4 259/4/4
f 246/5/4 247/5/4 260/5/4
f 259/4/4 246/4/4 260/4/4
f 247/4/4 248/4/4 261/4/4
f 260/5/4 247/5/4 261/5/4
f 249/3/4 250/3/4 262/3/4
f 261/4/4 248/4/4 262/4/4
f 248/3/4 249/3/4 262/3/4
f 262/3/4 250/3/4 263/3/4
f 263/3/4 250/3/4 264/3/4
f 255/6/4 256/6/4 265/6/4
f 254/6/4 255/6/4 265/6/4
f 252/6/4 253/6/4 265/6/4
f 256/6/4 257/6/4 265/6/4
f 253/6/4 254/6/4 265/6/4
f 265/6/4 257/6/4 266/6/4
f 266/6/4 257/6/4 267/6/4
f 267/6/4 257/6/4 268/6/4
f 258/3/4 259/3/4 270/3/4
f 270/3/4 259/3/4 271/3/4
f 262/3/4 263/3/4 272/3/4
f 272/3/4 263/3/4 273/3/4
f 266/6/4 267/6/4 274/6/4
f 274/6/4 267/6/4 275/6/4
f 269/3/4 270/3/4 277/3/4
f 277/3/4 270/3/4 278/3/4
f 276/3/4 277/3/4 280/3/4
f 277/3/4 278/3/4 280/3/4
f 278/1/4 279/1/4 281/1/4
f 280/3/4 278/3/4 281/3/4
f 281/1/4 279/1/4 282/1/4
f 283/1/4 284/1/4 286/1/4
f 286/1/4 284/1/4 287/1/4
f 287/1/4 284/1/4 288/1/4
f 285/1/4 286/1/4 290/1/4
f 286/1/4 287/1/4 290/1/4
f 290/1/4 287/1/4 291/1/4
f 287/2/4 288/2/4 292/2/4
f 291/1/4 287/1/4 292/1/4
f 288/1/4 289/1/4 293/1/4
f 292/2/4 288/2/4 293/2/4
f 293/1/4 289/1/4 294/1/4
f 291/1/4 292/1/4 295/1/4
f 292/1/4 293/1/4 295/1/4
f 295/1/4 293/1/4 296/1/4
f 299/6/5 298/6/5 297/6/5
f 300/6/5 298/6/5 299/6/5
f 305/6/5 302/6/5 301/6/5
f 306/6/5 302/6/5 305/6/5
f 307/6/5 304/6/5 303/6/5
f 308/6/5 304/6/5 307/6/5
f 313/6/5 310/6/5 309/6/5
f 314/6/5 310/6/5 313/6/5
f 315/6/5 312/6/5 311/6/5
f 316/6/5 312/6/5 315/6/5
f 321/1/5 318/1/5 317/1/5
f 322/1/5 318/1/5 321/1/5
f 325/3/5 320/3/5 319/3/5
f 326/3/5 320/3/5 325/3/5
f 329/3/5 324/3/5 323/3/5
f 330/3/5 324/3/5 329/3/5
f 331/1/5 328/1/5 327/1/5
f 332/1/5 328/1/5 331/1/5
f 337/1/5 334/1/5 333/1/5
f 338/1/5 334/1/5 337/1/5
f 339/1/5 336/1/5 335/1/5
f 340/1/5 336/1/5 339/1/5
f 345/1/5 342/1/5 341/1/5
f 346/1/5 342/1/5 345/1/5
f 347/1/5 344/1/5 343/1/5
f 348/1/5 344/1/5 347/1/5
f 353/3/5 350/3/5 349/3/5
f 354/3/5 350/3/5 353/3/5
f 355/3/5 352/3/5 351/3/5
f 356/3/5 352/3/5 355/3/5
f 361/3/5 358/3/5 357/3/5
f 362/3/5 358/3/5 361/3/5
f 363/3/5 360/3/5 359/3/5
f 364/3/5 360/3/5 363/3/5
f 365/6/6 366/6/6 369/6/6
f 369/6/6 366/6/6 370/6/6
f 367/6/6 368/6/6 371/6/6
f 371/6/6 368/6/6 372/6/6
f 373/1/6 374/1/6 378/1/6
f 378/1/6 374/1/6 379/1/6
f 375/1/6 376/1/6 380/1/6
f 380/1/6 376/1/6 381/1/6
f 377/3/6 378/3/6 383/3/6
f 383/3/6 378/3/6 384/3/6
f 381/3/6 382/3/6 387/3/6
f 387/3/6 382/3/6 388/3/6
f 384/1/6 385/1/6 389/1/6
f 389/1/6 385/1/6 390/1/6
f 386/1/6 387/1/6 391/1/6
f 391/1/6 387/1/6 392/1/6
f 393/1/6 394/1/6 398/1/6
f 398/1/6 394/1/6 399/1/6
f 395/1/6 396/1/6 403/1/6
f 403/1/6 396/1/6 404/1/6
f 397/3/6 398/3/6 405/3/6
f 405/3/6 398/3/6 406/3/6
f 399/3/6 400/3/6 407/3/6
f 407/3/6 400/3/6 408/3/6
f 401/1/6 402/1/6 409/1/6
f 409/1/6 402/1/6 410/1/6
f 406/1/6 407/1/6 411/1/6
f 411/1/6 407/1/6 412/1/6
f 413/3/6 414/3/6 417/3/6
f 417/3/6 414/3/6 418/3/6
f 415/3/6 416/3/6 419/3/6
f 419/3/6 416/3/6 420/3/6
f 421/3/6 422/3/6 423/3/6
f 423/3/6 422/3/6 424/3/6
