# MagicaVoxel @ Ephtracy

# group
o 

# material
mtllib EmeraldSword.mtl
usemtl palette

# normals
vn -1 0 0
vn 1 0 0
vn 0 0 1
vn 0 0 -1
vn 0 -1 0
vn 0 1 0

# texcoords
vt 0.560547 0.5
vt 0.587891 0.5
vt 0.615234 0.5
vt 0.634766 0.5
vt 0.642578 0.5
vt 0.923828 0.5
vt 0.939453 0.5
vt 0.951172 0.5

# verts
v -0.4 3.1 -0.5
v -0.4 3.1 -0.6
v -0.4 3.2 -0.5
v -0.4 3.2 -0.6
v -0.4 3.3 -0.5
v -0.4 3.3 -0.6
v -0.1 1.7 -0.5
v -0.1 1.7 -0.6
v -0.1 3.2 -0.5
v -0.1 3.2 -0.6
v -0.1 3.3 -0.5
v -0.1 3.3 -0.6
v -0.1 3.4 -0.5
v -0.1 3.4 -0.6
v -0.1 3.8 -0.5
v -0.1 3.8 -0.6
v -0.1 3.9 -0.5
v -0.1 3.9 -0.6
v 0 1.5 -0.5
v 0 1.5 -0.6
v 0 1.7 -0.5
v 0 1.7 -0.6
v 0 3.4 -0.5
v 0 3.4 -0.6
v 0 3.5 -0.5
v 0 3.5 -0.6
v 0 3.6 -0.5
v 0 3.6 -0.6
v 0 3.7 -0.5
v 0 3.7 -0.6
v 0 3.8 -0.5
v 0 3.8 -0.6
v 0 3.9 -0.5
v 0 3.9 -0.6
v 0 4 -0.5
v 0 4 -0.6
v 0.1 3 -0.5
v 0.1 3 -0.6
v 0.1 3.2 -0.5
v 0.1 3.2 -0.6
v 0.1 3.3 -0.5
v 0.1 3.3 -0.6
v 0.4 3.1 -0.5
v 0.4 3.1 -0.6
v 0.4 3.2 -0.5
v 0.4 3.2 -0.6
v -0.3 3.1 -0.5
v -0.3 3.1 -0.6
v -0.3 3.2 -0.5
v -0.3 3.2 -0.6
v 0 3 -0.5
v 0 3 -0.6
v 0 3.2 -0.5
v 0 3.2 -0.6
v 0 3.3 -0.5
v 0 3.3 -0.6
v 0.1 1.5 -0.5
v 0.1 1.5 -0.6
v 0.1 1.7 -0.5
v 0.1 1.7 -0.6
v 0.1 3.4 -0.5
v 0.1 3.4 -0.6
v 0.1 3.5 -0.5
v 0.1 3.5 -0.6
v 0.1 3.6 -0.5
v 0.1 3.6 -0.6
v 0.1 3.7 -0.5
v 0.1 3.7 -0.6
v 0.1 3.8 -0.5
v 0.1 3.8 -0.6
v 0.1 3.9 -0.5
v 0.1 3.9 -0.6
v 0.1 4 -0.5
v 0.1 4 -0.6
v 0.2 1.7 -0.5
v 0.2 1.7 -0.6
v 0.2 3.2 -0.5
v 0.2 3.2 -0.6
v 0.2 3.3 -0.5
v 0.2 3.3 -0.6
v 0.2 3.4 -0.5
v 0.2 3.4 -0.6
v 0.2 3.8 -0.5
v 0.2 3.8 -0.6
v 0.2 3.9 -0.5
v 0.2 3.9 -0.6
v 0.5 3.1 -0.5
v 0.5 3.1 -0.6
v 0.5 3.2 -0.5
v 0.5 3.2 -0.6
v 0.5 3.3 -0.5
v 0.5 3.3 -0.6
v -0.4 3.1 -0.5
v -0.4 3.2 -0.5
v -0.4 3.3 -0.5
v -0.3 3.1 -0.5
v -0.3 3.2 -0.5
v -0.1 1.7 -0.5
v -0.1 3.2 -0.5
v -0.1 3.3 -0.5
v -0.1 3.4 -0.5
v -0.1 3.8 -0.5
v -0.1 3.9 -0.5
v 0 1.5 -0.5
v 0 1.7 -0.5
v 0 1.9 -0.5
v 0 2.3 -0.5
v 0 2.8 -0.5
v 0 3 -0.5
v 0 3.2 -0.5
v 0 3.3 -0.5
v 0 3.4 -0.5
v 0 3.5 -0.5
v 0 3.6 -0.5
v 0 3.7 -0.5
v 0 3.8 -0.5
v 0 3.9 -0.5
v 0 4 -0.5
v 0.1 1.5 -0.5
v 0.1 1.7 -0.5
v 0.1 1.9 -0.5
v 0.1 2.3 -0.5
v 0.1 2.8 -0.5
v 0.1 3 -0.5
v 0.1 3.2 -0.5
v 0.1 3.3 -0.5
v 0.1 3.4 -0.5
v 0.1 3.5 -0.5
v 0.1 3.6 -0.5
v 0.1 3.7 -0.5
v 0.1 3.8 -0.5
v 0.1 3.9 -0.5
v 0.1 4 -0.5
v 0.2 1.7 -0.5
v 0.2 3.2 -0.5
v 0.2 3.3 -0.5
v 0.2 3.4 -0.5
v 0.2 3.8 -0.5
v 0.2 3.9 -0.5
v 0.4 3.1 -0.5
v 0.4 3.2 -0.5
v 0.5 3.1 -0.5
v 0.5 3.2 -0.5
v 0.5 3.3 -0.5
v -0.4 3.1 -0.6
v -0.4 3.2 -0.6
v -0.4 3.3 -0.6
v -0.3 3.1 -0.6
v -0.3 3.2 -0.6
v -0.1 1.7 -0.6
v -0.1 3.2 -0.6
v -0.1 3.3 -0.6
v -0.1 3.4 -0.6
v -0.1 3.8 -0.6
v -0.1 3.9 -0.6
v 0 1.5 -0.6
v 0 1.7 -0.6
v 0 1.9 -0.6
v 0 2.3 -0.6
v 0 2.8 -0.6
v 0 3 -0.6
v 0 3.2 -0.6
v 0 3.3 -0.6
v 0 3.4 -0.6
v 0 3.5 -0.6
v 0 3.6 -0.6
v 0 3.7 -0.6
v 0 3.8 -0.6
v 0 3.9 -0.6
v 0 4 -0.6
v 0.1 1.5 -0.6
v 0.1 1.7 -0.6
v 0.1 1.9 -0.6
v 0.1 2.3 -0.6
v 0.1 2.8 -0.6
v 0.1 3 -0.6
v 0.1 3.2 -0.6
v 0.1 3.3 -0.6
v 0.1 3.4 -0.6
v 0.1 3.5 -0.6
v 0.1 3.6 -0.6
v 0.1 3.7 -0.6
v 0.1 3.8 -0.6
v 0.1 3.9 -0.6
v 0.1 4 -0.6
v 0.2 1.7 -0.6
v 0.2 3.2 -0.6
v 0.2 3.3 -0.6
v 0.2 3.4 -0.6
v 0.2 3.8 -0.6
v 0.2 3.9 -0.6
v 0.4 3.1 -0.6
v 0.4 3.2 -0.6
v 0.5 3.1 -0.6
v 0.5 3.2 -0.6
v 0.5 3.3 -0.6
v 0 1.5 -0.5
v 0.1 1.5 -0.5
v 0 1.5 -0.6
v 0.1 1.5 -0.6
v -0.1 1.7 -0.5
v 0 1.7 -0.5
v 0.1 1.7 -0.5
v 0.2 1.7 -0.5
v -0.1 1.7 -0.6
v 0 1.7 -0.6
v 0.1 1.7 -0.6
v 0.2 1.7 -0.6
v -0.4 3.1 -0.5
v -0.3 3.1 -0.5
v 0.4 3.1 -0.5
v 0.5 3.1 -0.5
v -0.4 3.1 -0.6
v -0.3 3.1 -0.6
v 0.4 3.1 -0.6
v 0.5 3.1 -0.6
v -0.3 3.2 -0.5
v -0.1 3.2 -0.5
v 0.2 3.2 -0.5
v 0.4 3.2 -0.5
v -0.3 3.2 -0.6
v -0.1 3.2 -0.6
v 0.2 3.2 -0.6
v 0.4 3.2 -0.6
v 0 3.3 -0.5
v 0.1 3.3 -0.5
v 0 3.3 -0.6
v 0.1 3.3 -0.6
v -0.1 3.8 -0.5
v 0 3.8 -0.5
v 0.1 3.8 -0.5
v 0.2 3.8 -0.5
v -0.1 3.8 -0.6
v 0 3.8 -0.6
v 0.1 3.8 -0.6
v 0.2 3.8 -0.6
v 0 3 -0.5
v 0.1 3 -0.5
v 0 3 -0.6
v 0.1 3 -0.6
v -0.4 3.3 -0.5
v -0.1 3.3 -0.5
v 0.2 3.3 -0.5
v 0.5 3.3 -0.5
v -0.4 3.3 -0.6
v -0.1 3.3 -0.6
v 0.2 3.3 -0.6
v 0.5 3.3 -0.6
v -0.1 3.4 -0.5
v 0 3.4 -0.5
v 0.1 3.4 -0.5
v 0.2 3.4 -0.5
v -0.1 3.4 -0.6
v 0 3.4 -0.6
v 0.1 3.4 -0.6
v 0.2 3.4 -0.6
v -0.1 3.9 -0.5
v 0 3.9 -0.5
v 0.1 3.9 -0.5
v 0.2 3.9 -0.5
v -0.1 3.9 -0.6
v 0 3.9 -0.6
v 0.1 3.9 -0.6
v 0.2 3.9 -0.6
v 0 4 -0.5
v 0.1 4 -0.5
v 0 4 -0.6
v 0.1 4 -0.6

# faces
f 3/1/1 2/1/1 1/1/1
f 4/1/1 2/1/1 3/1/1
f 5/6/1 4/6/1 3/6/1
f 6/6/1 4/6/1 5/6/1
f 9/1/1 8/1/1 7/1/1
f 10/1/1 8/1/1 9/1/1
f 13/6/1 12/6/1 11/6/1
f 14/6/1 12/6/1 13/6/1
f 17/6/1 16/6/1 15/6/1
f 18/6/1 16/6/1 17/6/1
f 21/1/1 20/1/1 19/1/1
f 22/1/1 20/1/1 21/1/1
f 25/8/1 24/8/1 23/8/1
f 26/8/1 24/8/1 25/8/1
f 27/7/1 26/7/1 25/7/1
f 28/7/1 26/7/1 27/7/1
f 29/8/1 28/8/1 27/8/1
f 30/8/1 28/8/1 29/8/1
f 31/7/1 30/7/1 29/7/1
f 32/7/1 30/7/1 31/7/1
f 35/6/1 34/6/1 33/6/1
f 36/6/1 34/6/1 35/6/1
f 39/1/1 38/1/1 37/1/1
f 40/1/1 38/1/1 39/1/1
f 41/6/1 40/6/1 39/6/1
f 42/6/1 40/6/1 41/6/1
f 45/1/1 44/1/1 43/1/1
f 46/1/1 44/1/1 45/1/1
f 47/1/2 48/1/2 49/1/2
f 49/1/2 48/1/2 50/1/2
f 51/1/2 52/1/2 53/1/2
f 53/1/2 52/1/2 54/1/2
f 53/6/2 54/6/2 55/6/2
f 55/6/2 54/6/2 56/6/2
f 57/1/2 58/1/2 59/1/2
f 59/1/2 58/1/2 60/1/2
f 61/8/2 62/8/2 63/8/2
f 63/8/2 62/8/2 64/8/2
f 63/7/2 64/7/2 65/7/2
f 65/7/2 64/7/2 66/7/2
f 65/8/2 66/8/2 67/8/2
f 67/8/2 66/8/2 68/8/2
f 67/7/2 68/7/2 69/7/2
f 69/7/2 68/7/2 70/7/2
f 71/6/2 72/6/2 73/6/2
f 73/6/2 72/6/2 74/6/2
f 75/1/2 76/1/2 77/1/2
f 77/1/2 76/1/2 78/1/2
f 79/6/2 80/6/2 81/6/2
f 81/6/2 80/6/2 82/6/2
f 83/6/2 84/6/2 85/6/2
f 85/6/2 84/6/2 86/6/2
f 87/1/2 88/1/2 89/1/2
f 89/1/2 88/1/2 90/1/2
f 89/6/2 90/6/2 91/6/2
f 91/6/2 90/6/2 92/6/2
f 96/1/3 94/1/3 93/1/3
f 97/6/3 95/6/3 94/6/3
f 97/1/3 94/1/3 96/1/3
f 99/6/3 95/6/3 97/6/3
f 100/6/3 95/6/3 99/6/3
f 105/1/3 99/1/3 98/1/3
f 106/1/3 99/1/3 105/1/3
f 107/1/3 99/1/3 106/1/3
f 108/1/3 99/1/3 107/1/3
f 109/1/3 99/1/3 108/1/3
f 110/6/3 100/6/3 99/6/3
f 110/1/3 99/1/3 109/1/3
f 110/6/3 101/6/3 100/6/3
f 111/6/3 101/6/3 110/6/3
f 112/6/3 101/6/3 111/6/3
f 116/6/3 103/6/3 102/6/3
f 117/6/3 103/6/3 116/6/3
f 119/1/3 105/1/3 104/1/3
f 119/1/3 106/1/3 105/1/3
f 120/1/3 106/1/3 119/1/3
f 121/2/3 107/2/3 106/2/3
f 121/1/3 106/1/3 120/1/3
f 122/5/3 108/5/3 107/5/3
f 122/2/3 107/2/3 121/2/3
f 123/4/3 109/4/3 108/4/3
f 123/5/3 108/5/3 122/5/3
f 124/4/3 109/4/3 123/4/3
f 126/6/3 112/6/3 111/6/3
f 127/8/3 113/8/3 112/8/3
f 127/6/3 112/6/3 126/6/3
f 128/7/3 114/7/3 113/7/3
f 128/8/3 113/8/3 127/8/3
f 129/8/3 115/8/3 114/8/3
f 129/7/3 114/7/3 128/7/3
f 130/7/3 116/7/3 115/7/3
f 130/8/3 115/8/3 129/8/3
f 131/3/3 117/3/3 116/3/3
f 131/7/3 116/7/3 130/7/3
f 132/6/3 118/6/3 117/6/3
f 132/3/3 117/3/3 131/3/3
f 133/6/3 118/6/3 132/6/3
f 134/1/3 122/1/3 121/1/3
f 134/1/3 121/1/3 120/1/3
f 134/1/3 124/1/3 123/1/3
f 134/1/3 123/1/3 122/1/3
f 134/1/3 125/1/3 124/1/3
f 135/6/3 127/6/3 126/6/3
f 135/1/3 125/1/3 134/1/3
f 135/6/3 126/6/3 125/6/3
f 136/6/3 127/6/3 135/6/3
f 137/6/3 127/6/3 136/6/3
f 138/6/3 132/6/3 131/6/3
f 139/6/3 132/6/3 138/6/3
f 141/6/3 136/6/3 135/6/3
f 142/1/3 141/1/3 140/1/3
f 143/6/3 136/6/3 141/6/3
f 143/1/3 141/1/3 142/1/3
f 144/6/3 136/6/3 143/6/3
f 145/1/4 146/1/4 148/1/4
f 146/6/4 147/6/4 149/6/4
f 148/1/4 146/1/4 149/1/4
f 149/6/4 147/6/4 151/6/4
f 151/6/4 147/6/4 152/6/4
f 150/1/4 151/1/4 157/1/4
f 157/1/4 151/1/4 158/1/4
f 158/1/4 151/1/4 159/1/4
f 159/1/4 151/1/4 160/1/4
f 160/1/4 151/1/4 161/1/4
f 151/6/4 152/6/4 162/6/4
f 161/1/4 151/1/4 162/1/4
f 152/6/4 153/6/4 162/6/4
f 162/6/4 153/6/4 163/6/4
f 163/6/4 153/6/4 164/6/4
f 154/6/4 155/6/4 168/6/4
f 168/6/4 155/6/4 169/6/4
f 156/1/4 157/1/4 171/1/4
f 157/1/4 158/1/4 171/1/4
f 171/1/4 158/1/4 172/1/4
f 158/2/4 159/2/4 173/2/4
f 172/1/4 158/1/4 173/1/4
f 159/5/4 160/5/4 174/5/4
f 173/2/4 159/2/4 174/2/4
f 160/4/4 161/4/4 175/4/4
f 174/5/4 160/5/4 175/5/4
f 175/4/4 161/4/4 176/4/4
f 163/6/4 164/6/4 178/6/4
f 164/8/4 165/8/4 179/8/4
f 178/6/4 164/6/4 179/6/4
f 165/7/4 166/7/4 180/7/4
f 179/8/4 165/8/4 180/8/4
f 166/8/4 167/8/4 181/8/4
f 180/7/4 166/7/4 181/7/4
f 167/7/4 168/7/4 182/7/4
f 181/8/4 167/8/4 182/8/4
f 168/3/4 169/3/4 183/3/4
f 182/7/4 168/7/4 183/7/4
f 169/6/4 170/6/4 184/6/4
f 183/3/4 169/3/4 184/3/4
f 184/6/4 170/6/4 185/6/4
f 173/1/4 174/1/4 186/1/4
f 172/1/4 173/1/4 186/1/4
f 175/1/4 176/1/4 186/1/4
f 174/1/4 175/1/4 186/1/4
f 176/1/4 177/1/4 186/1/4
f 178/6/4 179/6/4 187/6/4
f 186/1/4 177/1/4 187/1/4
f 177/6/4 178/6/4 187/6/4
f 187/6/4 179/6/4 188/6/4
f 188/6/4 179/6/4 189/6/4
f 183/6/4 184/6/4 190/6/4
f 190/6/4 184/6/4 191/6/4
f 187/6/4 188/6/4 193/6/4
f 192/1/4 193/1/4 194/1/4
f 193/6/4 188/6/4 195/6/4
f 194/1/4 193/1/4 195/1/4
f 195/6/4 188/6/4 196/6/4
f 199/1/5 198/1/5 197/1/5
f 200/1/5 198/1/5 199/1/5
f 205/1/5 202/1/5 201/1/5
f 206/1/5 202/1/5 205/1/5
f 207/1/5 204/1/5 203/1/5
f 208/1/5 204/1/5 207/1/5
f 213/1/5 210/1/5 209/1/5
f 214/1/5 210/1/5 213/1/5
f 215/1/5 212/1/5 211/1/5
f 216/1/5 212/1/5 215/1/5
f 221/6/5 218/6/5 217/6/5
f 222/6/5 218/6/5 221/6/5
f 223/6/5 220/6/5 219/6/5
f 224/6/5 220/6/5 223/6/5
f 227/6/5 226/6/5 225/6/5
f 228/6/5 226/6/5 227/6/5
f 233/6/5 230/6/5 229/6/5
f 234/6/5 230/6/5 233/6/5
f 235/6/5 232/6/5 231/6/5
f 236/6/5 232/6/5 235/6/5
f 237/4/6 238/4/6 239/4/6
f 239/4/6 238/4/6 240/4/6
f 241/6/6 242/6/6 245/6/6
f 245/6/6 242/6/6 246/6/6
f 243/6/6 244/6/6 247/6/6
f 247/6/6 244/6/6 248/6/6
f 249/6/6 250/6/6 253/6/6
f 253/6/6 250/6/6 254/6/6
f 251/6/6 252/6/6 255/6/6
f 255/6/6 252/6/6 256/6/6
f 257/6/6 258/6/6 261/6/6
f 261/6/6 258/6/6 262/6/6
f 259/6/6 260/6/6 263/6/6
f 263/6/6 260/6/6 264/6/6
f 265/6/6 266/6/6 267/6/6
f 267/6/6 266/6/6 268/6/6
