# MagicaVoxel @ Ephtracy

# group
o 

# material
mtllib potion.mtl
usemtl palette

# normals
vn -1 0 0
vn 1 0 0
vn 0 0 1
vn 0 0 -1
vn 0 -1 0
vn 0 1 0

# texcoords
vt 0.0644531 0.5
vt 0.0683594 0.5
vt 0.728516 0.5
vt 0.748047 0.5

# verts
v -0.2 0 0.3
v -0.2 0 -0.1
v -0.2 0.1 0.3
v -0.2 0.1 -0.1
v -0.2 0.2 0.3
v -0.2 0.2 -0.1
v -0.2 0.3 0.3
v -0.2 0.3 -0.1
v -0.2 0.4 0.3
v -0.2 0.4 0.2
v -0.2 0.4 0
v -0.2 0.4 -0.1
v -0.2 0.5 0.2
v -0.2 0.5 0
v -0.2 0.7 0.2
v -0.2 0.7 0
v -0.2 0.8 0.2
v -0.2 0.8 0
v -0.1 0.4 0.3
v -0.1 0.4 0.2
v -0.1 0.4 0
v -0.1 0.4 -0.1
v -0.1 0.5 0.3
v -0.1 0.5 0.2
v -0.1 0.5 0
v -0.1 0.5 -0.1
v -0.1 0.7 0.3
v -0.1 0.7 0.2
v -0.1 0.7 0
v -0.1 0.7 -0.1
v -0.1 0.8 0.3
v -0.1 0.8 0.2
v -0.1 0.8 0
v -0.1 0.8 -0.1
v 0.1 0.7 0.2
v 0.1 0.7 0.1
v 0.1 0.7 0
v 0.1 0.8 0.2
v 0.1 0.8 0.1
v 0.1 0.8 0
v -0.1 0.7 0.2
v -0.1 0.7 0
v -0.1 0.8 0.2
v -0.1 0.8 0
v 0.1 0.4 0.3
v 0.1 0.4 0.2
v 0.1 0.4 0
v 0.1 0.4 -0.1
v 0.1 0.5 0.3
v 0.1 0.5 0.2
v 0.1 0.5 0.1
v 0.1 0.5 0
v 0.1 0.5 -0.1
v 0.1 0.7 0.3
v 0.1 0.7 0.2
v 0.1 0.7 0.1
v 0.1 0.7 0
v 0.1 0.7 -0.1
v 0.1 0.8 0.3
v 0.1 0.8 0.2
v 0.1 0.8 0
v 0.1 0.8 -0.1
v 0.2 0 0.3
v 0.2 0 -0.1
v 0.2 0.1 0.3
v 0.2 0.1 -0.1
v 0.2 0.2 0.3
v 0.2 0.2 -0.1
v 0.2 0.3 0.3
v 0.2 0.3 -0.1
v 0.2 0.4 0.3
v 0.2 0.4 0.2
v 0.2 0.4 0.1
v 0.2 0.4 0
v 0.2 0.4 -0.1
v 0.2 0.5 0.2
v 0.2 0.5 0.1
v 0.2 0.5 0
v 0.2 0.7 0.2
v 0.2 0.7 0.1
v 0.2 0.7 0
v 0.2 0.8 0.2
v 0.2 0.8 0.1
v 0.2 0.8 0
v -0.2 0 0.3
v -0.2 0.1 0.3
v -0.2 0.2 0.3
v -0.2 0.3 0.3
v -0.2 0.4 0.3
v -0.1 0.4 0.3
v -0.1 0.5 0.3
v -0.1 0.7 0.3
v -0.1 0.8 0.3
v 0.1 0.4 0.3
v 0.1 0.5 0.3
v 0.1 0.7 0.3
v 0.1 0.8 0.3
v 0.2 0 0.3
v 0.2 0.1 0.3
v 0.2 0.2 0.3
v 0.2 0.3 0.3
v 0.2 0.4 0.3
v -0.2 0.4 0.2
v -0.2 0.5 0.2
v -0.2 0.7 0.2
v -0.2 0.8 0.2
v -0.1 0.4 0.2
v -0.1 0.5 0.2
v -0.1 0.7 0.2
v -0.1 0.8 0.2
v 0.1 0.4 0.2
v 0.1 0.5 0.2
v 0.1 0.7 0.2
v 0.1 0.8 0.2
v 0.2 0.4 0.2
v 0.2 0.5 0.2
v 0.2 0.7 0.2
v 0.2 0.8 0.2
v -0.1 0.7 0
v -0.1 0.8 0
v 0 0.7 0
v 0 0.8 0
v 0.1 0.7 0
v 0.1 0.8 0
v -0.1 0.7 0.2
v -0.1 0.8 0.2
v 0.1 0.7 0.2
v 0.1 0.8 0.2
v -0.2 0.4 0
v -0.2 0.5 0
v -0.2 0.7 0
v -0.2 0.8 0
v -0.1 0.4 0
v -0.1 0.5 0
v -0.1 0.7 0
v -0.1 0.8 0
v 0 0.5 0
v 0 0.7 0
v 0.1 0.4 0
v 0.1 0.5 0
v 0.1 0.7 0
v 0.1 0.8 0
v 0.2 0.4 0
v 0.2 0.5 0
v 0.2 0.7 0
v 0.2 0.8 0
v -0.2 0 -0.1
v -0.2 0.1 -0.1
v -0.2 0.2 -0.1
v -0.2 0.3 -0.1
v -0.2 0.4 -0.1
v -0.1 0.4 -0.1
v -0.1 0.5 -0.1
v -0.1 0.7 -0.1
v -0.1 0.8 -0.1
v 0 0.4 -0.1
v 0 0.5 -0.1
v 0 0.7 -0.1
v 0 0.8 -0.1
v 0.1 0.4 -0.1
v 0.1 0.5 -0.1
v 0.1 0.7 -0.1
v 0.1 0.8 -0.1
v 0.2 0 -0.1
v 0.2 0.1 -0.1
v 0.2 0.2 -0.1
v 0.2 0.3 -0.1
v 0.2 0.4 -0.1
v -0.2 0 0.3
v 0.2 0 0.3
v -0.2 0 -0.1
v 0.2 0 -0.1
v -0.1 0.7 0.3
v 0.1 0.7 0.3
v -0.2 0.7 0.2
v -0.1 0.7 0.2
v 0.1 0.7 0.2
v 0.2 0.7 0.2
v 0.1 0.7 0.1
v 0.2 0.7 0.1
v -0.2 0.7 0
v -0.1 0.7 0
v 0 0.7 0
v 0.1 0.7 0
v 0.2 0.7 0
v -0.1 0.7 -0.1
v 0 0.7 -0.1
v 0.1 0.7 -0.1
v -0.2 0.4 0.3
v -0.1 0.4 0.3
v 0.1 0.4 0.3
v 0.2 0.4 0.3
v -0.2 0.4 0.2
v -0.1 0.4 0.2
v 0.1 0.4 0.2
v 0.2 0.4 0.2
v -0.2 0.4 0
v -0.1 0.4 0
v 0.1 0.4 0
v 0.2 0.4 0
v -0.2 0.4 -0.1
v -0.1 0.4 -0.1
v 0.1 0.4 -0.1
v 0.2 0.4 -0.1
v -0.1 0.5 0.3
v 0.1 0.5 0.3
v -0.2 0.5 0.2
v -0.1 0.5 0.2
v 0.1 0.5 0.2
v 0.2 0.5 0.2
v 0.1 0.5 0.1
v 0.2 0.5 0.1
v -0.2 0.5 0
v -0.1 0.5 0
v 0 0.5 0
v 0.1 0.5 0
v 0.2 0.5 0
v -0.1 0.5 -0.1
v 0 0.5 -0.1
v 0.1 0.5 -0.1
v -0.1 0.7 0.2
v 0.1 0.7 0.2
v 0 0.7 0.1
v 0.1 0.7 0.1
v -0.1 0.7 0
v 0 0.7 0
v 0.1 0.7 0
v -0.1 0.8 0.3
v 0.1 0.8 0.3
v -0.2 0.8 0.2
v -0.1 0.8 0.2
v 0.1 0.8 0.2
v 0.2 0.8 0.2
v 0.1 0.8 0.1
v 0.2 0.8 0.1
v -0.2 0.8 0
v -0.1 0.8 0
v 0 0.8 0
v 0.1 0.8 0
v 0.2 0.8 0
v -0.1 0.8 -0.1
v 0 0.8 -0.1
v 0.1 0.8 -0.1

# faces
f 3/3/1 2/3/1 1/3/1
f 4/3/1 2/3/1 3/3/1
f 5/1/1 4/1/1 3/1/1
f 6/1/1 4/1/1 5/1/1
f 7/2/1 6/2/1 5/2/1
f 8/2/1 6/2/1 7/2/1
f 9/1/1 8/1/1 7/1/1
f 10/1/1 8/1/1 9/1/1
f 11/1/1 8/1/1 10/1/1
f 12/1/1 8/1/1 11/1/1
f 13/4/1 11/4/1 10/4/1
f 14/4/1 11/4/1 13/4/1
f 17/4/1 16/4/1 15/4/1
f 18/4/1 16/4/1 17/4/1
f 23/4/1 20/4/1 19/4/1
f 24/4/1 20/4/1 23/4/1
f 25/4/1 22/4/1 21/4/1
f 26/4/1 22/4/1 25/4/1
f 28/4/1 25/4/1 24/4/1
f 29/4/1 25/4/1 28/4/1
f 31/4/1 28/4/1 27/4/1
f 32/4/1 28/4/1 31/4/1
f 33/4/1 30/4/1 29/4/1
f 34/4/1 30/4/1 33/4/1
f 38/4/1 36/4/1 35/4/1
f 39/3/1 37/3/1 36/3/1
f 39/4/1 36/4/1 38/4/1
f 40/3/1 37/3/1 39/3/1
f 41/4/2 42/4/2 43/4/2
f 43/4/2 42/4/2 44/4/2
f 45/4/2 46/4/2 49/4/2
f 49/4/2 46/4/2 50/4/2
f 47/3/2 48/3/2 52/3/2
f 52/3/2 48/3/2 53/3/2
f 50/4/2 51/4/2 55/4/2
f 51/3/2 52/3/2 56/3/2
f 55/4/2 51/4/2 56/4/2
f 56/3/2 52/3/2 57/3/2
f 54/4/2 55/4/2 59/4/2
f 59/4/2 55/4/2 60/4/2
f 57/3/2 58/3/2 61/3/2
f 61/3/2 58/3/2 62/3/2
f 63/3/2 64/3/2 65/3/2
f 65/3/2 64/3/2 66/3/2
f 65/1/2 66/1/2 67/1/2
f 67/1/2 66/1/2 68/1/2
f 67/2/2 68/2/2 69/2/2
f 69/2/2 68/2/2 70/2/2
f 69/1/2 70/1/2 71/1/2
f 71/1/2 70/1/2 72/1/2
f 72/1/2 70/1/2 73/1/2
f 73/1/2 70/1/2 74/1/2
f 74/1/2 70/1/2 75/1/2
f 72/4/2 73/4/2 76/4/2
f 73/3/2 74/3/2 77/3/2
f 76/4/2 73/4/2 77/4/2
f 77/3/2 74/3/2 78/3/2
f 79/4/2 80/4/2 82/4/2
f 80/3/2 81/3/2 83/3/2
f 82/4/2 80/4/2 83/4/2
f 83/3/2 81/3/2 84/3/2
f 90/1/3 89/1/3 88/1/3
f 94/1/3 90/1/3 88/1/3
f 94/4/3 91/4/3 90/4/3
f 95/4/3 91/4/3 94/4/3
f 96/4/3 93/4/3 92/4/3
f 97/4/3 93/4/3 96/4/3
f 98/3/3 86/3/3 85/3/3
f 99/1/3 87/1/3 86/1/3
f 99/3/3 86/3/3 98/3/3
f 100/2/3 88/2/3 87/2/3
f 100/1/3 87/1/3 99/1/3
f 101/1/3 94/1/3 88/1/3
f 101/2/3 88/2/3 100/2/3
f 102/1/3 94/1/3 101/1/3
f 107/4/3 104/4/3 103/4/3
f 108/4/3 104/4/3 107/4/3
f 109/4/3 106/4/3 105/4/3
f 110/4/3 106/4/3 109/4/3
f 112/4/3 109/4/3 108/4/3
f 113/4/3 109/4/3 112/4/3
f 115/4/3 112/4/3 111/4/3
f 116/4/3 112/4/3 115/4/3
f 117/4/3 114/4/3 113/4/3
f 118/4/3 114/4/3 117/4/3
f 121/4/3 120/4/3 119/4/3
f 122/4/3 120/4/3 121/4/3
f 123/3/3 122/3/3 121/3/3
f 124/3/3 122/3/3 123/3/3
f 125/4/4 126/4/4 127/4/4
f 127/4/4 126/4/4 128/4/4
f 129/4/4 130/4/4 133/4/4
f 133/4/4 130/4/4 134/4/4
f 131/4/4 132/4/4 135/4/4
f 135/4/4 132/4/4 136/4/4
f 134/4/4 135/4/4 137/4/4
f 137/4/4 135/4/4 138/4/4
f 137/3/4 138/3/4 140/3/4
f 140/3/4 138/3/4 141/3/4
f 139/3/4 140/3/4 143/3/4
f 143/3/4 140/3/4 144/3/4
f 141/3/4 142/3/4 145/3/4
f 145/3/4 142/3/4 146/3/4
f 150/1/4 151/1/4 152/1/4
f 150/1/4 152/1/4 156/1/4
f 152/4/4 153/4/4 156/4/4
f 156/4/4 153/4/4 157/4/4
f 154/4/4 155/4/4 158/4/4
f 158/4/4 155/4/4 159/4/4
f 156/3/4 157/3/4 160/3/4
f 150/1/4 156/1/4 160/1/4
f 160/3/4 157/3/4 161/3/4
f 158/3/4 159/3/4 162/3/4
f 162/3/4 159/3/4 163/3/4
f 147/3/4 148/3/4 164/3/4
f 148/1/4 149/1/4 165/1/4
f 164/3/4 148/3/4 165/3/4
f 149/2/4 150/2/4 166/2/4
f 165/1/4 149/1/4 166/1/4
f 150/1/4 160/1/4 167/1/4
f 166/2/4 150/2/4 167/2/4
f 167/1/4 160/1/4 168/1/4
f 171/3/5 170/3/5 169/3/5
f 172/3/5 170/3/5 171/3/5
f 176/4/5 174/4/5 173/4/5
f 177/4/5 174/4/5 176/4/5
f 179/4/5 178/4/5 177/4/5
f 180/4/5 178/4/5 179/4/5
f 181/4/5 176/4/5 175/4/5
f 182/4/5 176/4/5 181/4/5
f 184/3/5 180/3/5 179/3/5
f 185/3/5 180/3/5 184/3/5
f 186/4/5 183/4/5 182/4/5
f 187/3/5 184/3/5 183/3/5
f 187/4/5 183/4/5 186/4/5
f 188/3/5 184/3/5 187/3/5
f 189/1/6 190/1/6 193/1/6
f 193/1/6 190/1/6 194/1/6
f 191/1/6 192/1/6 195/1/6
f 195/1/6 192/1/6 196/1/6
f 197/1/6 198/1/6 201/1/6
f 201/1/6 198/1/6 202/1/6
f 199/1/6 200/1/6 203/1/6
f 203/1/6 200/1/6 204/1/6
f 205/4/6 206/4/6 208/4/6
f 208/4/6 206/4/6 209/4/6
f 209/4/6 210/4/6 211/4/6
f 211/4/6 210/4/6 212/4/6
f 207/4/6 208/4/6 213/4/6
f 213/4/6 208/4/6 214/4/6
f 211/3/6 212/3/6 216/3/6
f 216/3/6 212/3/6 217/3/6
f 214/4/6 215/4/6 218/4/6
f 215/3/6 216/3/6 219/3/6
f 218/4/6 215/4/6 219/4/6
f 219/3/6 216/3/6 220/3/6
f 221/4/6 222/4/6 223/4/6
f 223/4/6 222/4/6 224/4/6
f 221/4/6 223/4/6 225/4/6
f 223/3/6 224/3/6 226/3/6
f 225/4/6 223/4/6 226/4/6
f 226/3/6 224/3/6 227/3/6
f 228/4/6 229/4/6 231/4/6
f 231/4/6 229/4/6 232/4/6
f 232/4/6 233/4/6 234/4/6
f 234/4/6 233/4/6 235/4/6
f 230/4/6 231/4/6 236/4/6
f 236/4/6 231/4/6 237/4/6
f 234/3/6 235/3/6 239/3/6
f 239/3/6 235/3/6 240/3/6
f 237/4/6 238/4/6 241/4/6
f 238/3/6 239/3/6 242/3/6
f 241/4/6 238/4/6 242/4/6
f 242/3/6 239/3/6 243/3/6
