# MagicaVoxel @ Ephtracy

# group
o 

# material
mtllib table.mtl
usemtl palette

# normals
vn -1 0 0
vn 1 0 0
vn 0 0 1
vn 0 0 -1
vn 0 -1 0
vn 0 1 0

# texcoords
vt 0.158203 0.5
vt 0.189453 0.5
vt 0.193359 0.5
vt 0.220703 0.5
vt 0.232422 0.5

# verts
v -0.8 0.6 0.8
v -0.8 0.6 0.7
v -0.8 0.6 0.6
v -0.8 0.6 0.5
v -0.8 0.6 0.4
v -0.8 0.6 0.3
v -0.8 0.6 0.2
v -0.8 0.6 0.1
v -0.8 0.6 0
v -0.8 0.6 -0.2
v -0.8 0.6 -0.3
v -0.8 0.6 -0.4
v -0.8 0.6 -0.6
v -0.8 0.6 -0.7
v -0.8 0.6 -0.8
v -0.8 0.7 0.8
v -0.8 0.7 0.7
v -0.8 0.7 0.6
v -0.8 0.7 0.5
v -0.8 0.7 0.4
v -0.8 0.7 0.3
v -0.8 0.7 0.2
v -0.8 0.7 0.1
v -0.8 0.7 0
v -0.8 0.7 -0.2
v -0.8 0.7 -0.3
v -0.8 0.7 -0.4
v -0.8 0.7 -0.6
v -0.8 0.7 -0.7
v -0.8 0.7 -0.8
v -0.6 0 0.6
v -0.6 0 0.5
v -0.6 0 -0.5
v -0.6 0 -0.6
v -0.6 0.2 0.6
v -0.6 0.2 0.5
v -0.6 0.2 -0.5
v -0.6 0.2 -0.6
v -0.6 0.5 0.5
v -0.6 0.5 -0.5
v -0.6 0.6 0.6
v -0.6 0.6 0.5
v -0.6 0.6 0.4
v -0.6 0.6 0.3
v -0.6 0.6 0.2
v -0.6 0.6 0.1
v -0.6 0.6 0
v -0.6 0.6 -0.2
v -0.6 0.6 -0.3
v -0.6 0.6 -0.4
v -0.6 0.6 -0.6
v 0.5 0 0.6
v 0.5 0 0.5
v 0.5 0 -0.5
v 0.5 0 -0.6
v 0.5 0.2 0.6
v 0.5 0.2 0.5
v 0.5 0.2 -0.5
v 0.5 0.2 -0.6
v 0.5 0.4 0.6
v 0.5 0.4 0.5
v 0.5 0.4 -0.5
v 0.5 0.4 -0.6
v 0.5 0.5 0.6
v 0.5 0.5 0.5
v 0.5 0.5 -0.5
v 0.5 0.5 -0.6
v 0.5 0.6 0.6
v 0.5 0.6 0.5
v 0.5 0.6 0.4
v 0.5 0.6 0.3
v 0.5 0.6 0.2
v 0.5 0.6 0.1
v 0.5 0.6 0
v 0.5 0.6 -0.2
v 0.5 0.6 -0.3
v 0.5 0.6 -0.4
v 0.5 0.6 -0.6
v -0.5 0 0.6
v -0.5 0 0.5
v -0.5 0 -0.5
v -0.5 0 -0.6
v -0.5 0.2 0.6
v -0.5 0.2 0.5
v -0.5 0.2 -0.5
v -0.5 0.2 -0.6
v -0.5 0.4 0.6
v -0.5 0.4 0.5
v -0.5 0.4 -0.5
v -0.5 0.4 -0.6
v -0.5 0.5 0.6
v -0.5 0.5 0.5
v -0.5 0.5 -0.5
v -0.5 0.5 -0.6
v -0.5 0.6 0.6
v -0.5 0.6 0.5
v -0.5 0.6 0.4
v -0.5 0.6 0.3
v -0.5 0.6 0.2
v -0.5 0.6 0.1
v -0.5 0.6 0
v -0.5 0.6 -0.2
v -0.5 0.6 -0.3
v -0.5 0.6 -0.4
v -0.5 0.6 -0.6
v 0.6 0 0.6
v 0.6 0 0.5
v 0.6 0 -0.5
v 0.6 0 -0.6
v 0.6 0.2 0.6
v 0.6 0.2 0.5
v 0.6 0.2 -0.5
v 0.6 0.2 -0.6
v 0.6 0.5 0.5
v 0.6 0.5 -0.5
v 0.6 0.6 0.6
v 0.6 0.6 0.5
v 0.6 0.6 0.4
v 0.6 0.6 0.3
v 0.6 0.6 0.2
v 0.6 0.6 0.1
v 0.6 0.6 0
v 0.6 0.6 -0.2
v 0.6 0.6 -0.3
v 0.6 0.6 -0.4
v 0.6 0.6 -0.6
v 0.8 0.6 0.8
v 0.8 0.6 0.7
v 0.8 0.6 0.6
v 0.8 0.6 0.5
v 0.8 0.6 0.4
v 0.8 0.6 0.3
v 0.8 0.6 0.2
v 0.8 0.6 0.1
v 0.8 0.6 0
v 0.8 0.6 -0.2
v 0.8 0.6 -0.3
v 0.8 0.6 -0.4
v 0.8 0.6 -0.6
v 0.8 0.6 -0.7
v 0.8 0.6 -0.8
v 0.8 0.7 0.8
v 0.8 0.7 0.7
v 0.8 0.7 0.6
v 0.8 0.7 0.5
v 0.8 0.7 0.4
v 0.8 0.7 0.3
v 0.8 0.7 0.2
v 0.8 0.7 0.1
v 0.8 0.7 0
v 0.8 0.7 -0.2
v 0.8 0.7 -0.3
v 0.8 0.7 -0.4
v 0.8 0.7 -0.6
v 0.8 0.7 -0.7
v 0.8 0.7 -0.8
v -0.8 0.6 0.8
v -0.8 0.7 0.8
v 0.8 0.6 0.8
v 0.8 0.7 0.8
v -0.6 0 0.6
v -0.6 0.2 0.6
v -0.6 0.6 0.6
v -0.5 0 0.6
v -0.5 0.2 0.6
v -0.5 0.4 0.6
v -0.5 0.5 0.6
v -0.5 0.6 0.6
v 0.5 0 0.6
v 0.5 0.2 0.6
v 0.5 0.4 0.6
v 0.5 0.5 0.6
v 0.5 0.6 0.6
v 0.6 0 0.6
v 0.6 0.2 0.6
v 0.6 0.6 0.6
v -0.6 0 -0.5
v -0.6 0.2 -0.5
v -0.6 0.5 -0.5
v -0.5 0 -0.5
v -0.5 0.2 -0.5
v -0.5 0.4 -0.5
v -0.5 0.5 -0.5
v 0.5 0 -0.5
v 0.5 0.2 -0.5
v 0.5 0.4 -0.5
v 0.5 0.5 -0.5
v 0.6 0 -0.5
v 0.6 0.2 -0.5
v 0.6 0.5 -0.5
v -0.6 0 0.5
v -0.6 0.2 0.5
v -0.6 0.5 0.5
v -0.5 0 0.5
v -0.5 0.2 0.5
v -0.5 0.4 0.5
v -0.5 0.5 0.5
v 0.5 0 0.5
v 0.5 0.2 0.5
v 0.5 0.4 0.5
v 0.5 0.5 0.5
v 0.6 0 0.5
v 0.6 0.2 0.5
v 0.6 0.5 0.5
v -0.6 0 -0.6
v -0.6 0.2 -0.6
v -0.6 0.6 -0.6
v -0.5 0 -0.6
v -0.5 0.2 -0.6
v -0.5 0.4 -0.6
v -0.5 0.5 -0.6
v -0.5 0.6 -0.6
v 0.5 0 -0.6
v 0.5 0.2 -0.6
v 0.5 0.4 -0.6
v 0.5 0.5 -0.6
v 0.5 0.6 -0.6
v 0.6 0 -0.6
v 0.6 0.2 -0.6
v 0.6 0.6 -0.6
v -0.8 0.6 -0.8
v -0.8 0.7 -0.8
v 0.8 0.6 -0.8
v 0.8 0.7 -0.8
v -0.6 0 0.6
v -0.5 0 0.6
v 0.5 0 0.6
v 0.6 0 0.6
v -0.6 0 0.5
v -0.5 0 0.5
v 0.5 0 0.5
v 0.6 0 0.5
v -0.6 0 -0.5
v -0.5 0 -0.5
v 0.5 0 -0.5
v 0.6 0 -0.5
v -0.6 0 -0.6
v -0.5 0 -0.6
v 0.5 0 -0.6
v 0.6 0 -0.6
v -0.5 0.4 0.6
v 0.5 0.4 0.6
v -0.5 0.4 0.5
v 0.5 0.4 0.5
v -0.5 0.4 -0.5
v 0.5 0.4 -0.5
v -0.5 0.4 -0.6
v 0.5 0.4 -0.6
v -0.6 0.5 0.5
v -0.5 0.5 0.5
v 0.5 0.5 0.5
v 0.6 0.5 0.5
v -0.6 0.5 -0.5
v -0.5 0.5 -0.5
v 0.5 0.5 -0.5
v 0.6 0.5 -0.5
v -0.8 0.6 0.8
v 0.8 0.6 0.8
v -0.8 0.6 0.7
v 0.8 0.6 0.7
v -0.8 0.6 0.6
v -0.6 0.6 0.6
v -0.5 0.6 0.6
v 0.5 0.6 0.6
v 0.6 0.6 0.6
v 0.8 0.6 0.6
v -0.8 0.6 0.5
v -0.6 0.6 0.5
v -0.5 0.6 0.5
v 0.5 0.6 0.5
v 0.6 0.6 0.5
v 0.8 0.6 0.5
v -0.8 0.6 0.4
v -0.6 0.6 0.4
v -0.5 0.6 0.4
v 0.5 0.6 0.4
v 0.6 0.6 0.4
v 0.8 0.6 0.4
v -0.8 0.6 0.3
v -0.6 0.6 0.3
v -0.5 0.6 0.3
v 0.5 0.6 0.3
v 0.6 0.6 0.3
v 0.8 0.6 0.3
v -0.8 0.6 0.2
v -0.6 0.6 0.2
v -0.5 0.6 0.2
v 0.5 0.6 0.2
v 0.6 0.6 0.2
v 0.8 0.6 0.2
v -0.8 0.6 0.1
v -0.6 0.6 0.1
v -0.5 0.6 0.1
v 0.5 0.6 0.1
v 0.6 0.6 0.1
v 0.8 0.6 0.1
v -0.8 0.6 0
v -0.6 0.6 0
v -0.5 0.6 0
v 0.5 0.6 0
v 0.6 0.6 0
v 0.8 0.6 0
v -0.8 0.6 -0.2
v -0.6 0.6 -0.2
v -0.5 0.6 -0.2
v 0.5 0.6 -0.2
v 0.6 0.6 -0.2
v 0.8 0.6 -0.2
v -0.8 0.6 -0.3
v -0.6 0.6 -0.3
v -0.5 0.6 -0.3
v 0.5 0.6 -0.3
v 0.6 0.6 -0.3
v 0.8 0.6 -0.3
v -0.8 0.6 -0.4
v -0.6 0.6 -0.4
v -0.5 0.6 -0.4
v 0.5 0.6 -0.4
v 0.6 0.6 -0.4
v 0.8 0.6 -0.4
v -0.8 0.6 -0.6
v -0.6 0.6 -0.6
v -0.5 0.6 -0.6
v 0.5 0.6 -0.6
v 0.6 0.6 -0.6
v 0.8 0.6 -0.6
v -0.8 0.6 -0.7
v 0.8 0.6 -0.7
v -0.8 0.6 -0.8
v 0.8 0.6 -0.8
v -0.5 0.5 0.6
v 0.5 0.5 0.6
v -0.5 0.5 0.5
v 0.5 0.5 0.5
v -0.5 0.5 -0.5
v 0.5 0.5 -0.5
v -0.5 0.5 -0.6
v 0.5 0.5 -0.6
v -0.8 0.7 0.8
v 0.8 0.7 0.8
v -0.8 0.7 0.7
v 0.8 0.7 0.7
v -0.8 0.7 0.6
v 0.8 0.7 0.6
v -0.8 0.7 0.5
v 0.8 0.7 0.5
v -0.8 0.7 0.4
v 0.8 0.7 0.4
v -0.8 0.7 0.3
v 0.8 0.7 0.3
v -0.8 0.7 0.2
v 0.8 0.7 0.2
v -0.8 0.7 0.1
v 0.8 0.7 0.1
v -0.8 0.7 0
v 0.8 0.7 0
v -0.8 0.7 -0.2
v 0.8 0.7 -0.2
v -0.8 0.7 -0.3
v 0.8 0.7 -0.3
v -0.8 0.7 -0.4
v 0.8 0.7 -0.4
v -0.8 0.7 -0.6
v 0.8 0.7 -0.6
v -0.8 0.7 -0.7
v 0.8 0.7 -0.7
v -0.8 0.7 -0.8
v 0.8 0.7 -0.8

# faces
f 16/2/1 2/2/1 1/2/1
f 17/4/1 3/4/1 2/4/1
f 17/2/1 2/2/1 16/2/1
f 18/5/1 4/5/1 3/5/1
f 18/4/1 3/4/1 17/4/1
f 19/2/1 5/2/1 4/2/1
f 19/5/1 4/5/1 18/5/1
f 20/4/1 6/4/1 5/4/1
f 20/2/1 5/2/1 19/2/1
f 21/2/1 7/2/1 6/2/1
f 21/4/1 6/4/1 20/4/1
f 22/4/1 8/4/1 7/4/1
f 22/2/1 7/2/1 21/2/1
f 23/5/1 9/5/1 8/5/1
f 23/4/1 8/4/1 22/4/1
f 24/2/1 10/2/1 9/2/1
f 24/5/1 9/5/1 23/5/1
f 25/4/1 11/4/1 10/4/1
f 25/2/1 10/2/1 24/2/1
f 26/5/1 12/5/1 11/5/1
f 26/4/1 11/4/1 25/4/1
f 27/2/1 13/2/1 12/2/1
f 27/5/1 12/5/1 26/5/1
f 28/5/1 14/5/1 13/5/1
f 28/2/1 13/2/1 27/2/1
f 29/2/1 15/2/1 14/2/1
f 29/5/1 14/5/1 28/5/1
f 30/2/1 15/2/1 29/2/1
f 35/1/1 32/1/1 31/1/1
f 36/1/1 32/1/1 35/1/1
f 37/1/1 34/1/1 33/1/1
f 38/1/1 34/1/1 37/1/1
f 39/3/1 36/3/1 35/3/1
f 40/3/1 38/3/1 37/3/1
f 41/3/1 39/3/1 35/3/1
f 41/3/1 40/3/1 39/3/1
f 42/3/1 40/3/1 41/3/1
f 43/3/1 40/3/1 42/3/1
f 44/3/1 40/3/1 43/3/1
f 45/3/1 40/3/1 44/3/1
f 46/3/1 40/3/1 45/3/1
f 47/3/1 40/3/1 46/3/1
f 48/3/1 40/3/1 47/3/1
f 49/3/1 40/3/1 48/3/1
f 50/3/1 40/3/1 49/3/1
f 51/3/1 38/3/1 40/3/1
f 51/3/1 40/3/1 50/3/1
f 56/1/1 53/1/1 52/1/1
f 57/1/1 53/1/1 56/1/1
f 58/1/1 55/1/1 54/1/1
f 59/1/1 55/1/1 58/1/1
f 60/3/1 57/3/1 56/3/1
f 61/3/1 57/3/1 60/3/1
f 62/3/1 59/3/1 58/3/1
f 63/3/1 59/3/1 62/3/1
f 68/3/1 65/3/1 64/3/1
f 68/3/1 67/3/1 66/3/1
f 68/3/1 66/3/1 65/3/1
f 69/3/1 67/3/1 68/3/1
f 70/3/1 67/3/1 69/3/1
f 71/3/1 67/3/1 70/3/1
f 72/3/1 67/3/1 71/3/1
f 73/3/1 67/3/1 72/3/1
f 74/3/1 67/3/1 73/3/1
f 75/3/1 67/3/1 74/3/1
f 76/3/1 67/3/1 75/3/1
f 77/3/1 67/3/1 76/3/1
f 78/3/1 67/3/1 77/3/1
f 79/1/2 80/1/2 83/1/2
f 83/1/2 80/1/2 84/1/2
f 81/1/2 82/1/2 85/1/2
f 85/1/2 82/1/2 86/1/2
f 83/3/2 84/3/2 87/3/2
f 87/3/2 84/3/2 88/3/2
f 85/3/2 86/3/2 89/3/2
f 89/3/2 86/3/2 90/3/2
f 91/3/2 92/3/2 95/3/2
f 93/3/2 94/3/2 95/3/2
f 92/3/2 93/3/2 95/3/2
f 95/3/2 94/3/2 96/3/2
f 96/3/2 94/3/2 97/3/2
f 97/3/2 94/3/2 98/3/2
f 98/3/2 94/3/2 99/3/2
f 99/3/2 94/3/2 100/3/2
f 100/3/2 94/3/2 101/3/2
f 101/3/2 94/3/2 102/3/2
f 102/3/2 94/3/2 103/3/2
f 103/3/2 94/3/2 104/3/2
f 104/3/2 94/3/2 105/3/2
f 106/1/2 107/1/2 110/1/2
f 110/1/2 107/1/2 111/1/2
f 108/1/2 109/1/2 112/1/2
f 112/1/2 109/1/2 113/1/2
f 110/3/2 111/3/2 114/3/2
f 112/3/2 113/3/2 115/3/2
f 110/3/2 114/3/2 116/3/2
f 114/3/2 115/3/2 116/3/2
f 116/3/2 115/3/2 117/3/2
f 117/3/2 115/3/2 118/3/2
f 118/3/2 115/3/2 119/3/2
f 119/3/2 115/3/2 120/3/2
f 120/3/2 115/3/2 121/3/2
f 121/3/2 115/3/2 122/3/2
f 122/3/2 115/3/2 123/3/2
f 123/3/2 115/3/2 124/3/2
f 124/3/2 115/3/2 125/3/2
f 115/3/2 113/3/2 126/3/2
f 125/3/2 115/3/2 126/3/2
f 127/2/2 128/2/2 142/2/2
f 128/4/2 129/4/2 143/4/2
f 142/2/2 128/2/2 143/2/2
f 129/5/2 130/5/2 144/5/2
f 143/4/2 129/4/2 144/4/2
f 130/2/2 131/2/2 145/2/2
f 144/5/2 130/5/2 145/5/2
f 131/4/2 132/4/2 146/4/2
f 145/2/2 131/2/2 146/2/2
f 132/2/2 133/2/2 147/2/2
f 146/4/2 132/4/2 147/4/2
f 133/4/2 134/4/2 148/4/2
f 147/2/2 133/2/2 148/2/2
f 134/5/2 135/5/2 149/5/2
f 148/4/2 134/4/2 149/4/2
f 135/2/2 136/2/2 150/2/2
f 149/5/2 135/5/2 150/5/2
f 136/4/2 137/4/2 151/4/2
f 150/2/2 136/2/2 151/2/2
f 137/5/2 138/5/2 152/5/2
f 151/4/2 137/4/2 152/4/2
f 138/2/2 139/2/2 153/2/2
f 152/5/2 138/5/2 153/5/2
f 139/5/2 140/5/2 154/5/2
f 153/2/2 139/2/2 154/2/2
f 140/2/2 141/2/2 155/2/2
f 154/5/2 140/5/2 155/5/2
f 155/2/2 141/2/2 156/2/2
f 159/2/3 158/2/3 157/2/3
f 160/2/3 158/2/3 159/2/3
f 164/1/3 162/1/3 161/1/3
f 165/3/3 163/3/3 162/3/3
f 165/1/3 162/1/3 164/1/3
f 166/3/3 163/3/3 165/3/3
f 167/3/3 163/3/3 166/3/3
f 168/3/3 163/3/3 167/3/3
f 171/2/3 167/2/3 166/2/3
f 172/2/3 167/2/3 171/2/3
f 174/1/3 170/1/3 169/1/3
f 175/3/3 173/3/3 172/3/3
f 175/1/3 170/1/3 174/1/3
f 175/3/3 171/3/3 170/3/3
f 175/3/3 172/3/3 171/3/3
f 176/3/3 173/3/3 175/3/3
f 180/1/3 178/1/3 177/1/3
f 181/3/3 179/3/3 178/3/3
f 181/1/3 178/1/3 180/1/3
f 182/3/3 179/3/3 181/3/3
f 183/3/3 179/3/3 182/3/3
f 186/2/3 183/2/3 182/2/3
f 187/2/3 183/2/3 186/2/3
f 188/1/3 185/1/3 184/1/3
f 189/3/3 186/3/3 185/3/3
f 189/1/3 185/1/3 188/1/3
f 189/3/3 187/3/3 186/3/3
f 190/3/3 187/3/3 189/3/3
f 191/1/4 192/1/4 194/1/4
f 192/3/4 193/3/4 195/3/4
f 194/1/4 192/1/4 195/1/4
f 195/3/4 193/3/4 196/3/4
f 196/3/4 193/3/4 197/3/4
f 196/2/4 197/2/4 200/2/4
f 200/2/4 197/2/4 201/2/4
f 198/1/4 199/1/4 202/1/4
f 199/3/4 200/3/4 203/3/4
f 202/1/4 199/1/4 203/1/4
f 200/3/4 201/3/4 203/3/4
f 203/3/4 201/3/4 204/3/4
f 205/1/4 206/1/4 208/1/4
f 206/3/4 207/3/4 209/3/4
f 208/1/4 206/1/4 209/1/4
f 209/3/4 207/3/4 210/3/4
f 210/3/4 207/3/4 211/3/4
f 211/3/4 207/3/4 212/3/4
f 210/2/4 211/2/4 215/2/4
f 215/2/4 211/2/4 216/2/4
f 213/1/4 214/1/4 218/1/4
f 216/3/4 217/3/4 219/3/4
f 218/1/4 214/1/4 219/1/4
f 214/3/4 215/3/4 219/3/4
f 215/3/4 216/3/4 219/3/4
f 219/3/4 217/3/4 220/3/4
f 221/2/4 222/2/4 223/2/4
f 223/2/4 222/2/4 224/2/4
f 229/1/5 226/1/5 225/1/5
f 230/1/5 226/1/5 229/1/5
f 231/1/5 228/1/5 227/1/5
f 232/1/5 228/1/5 231/1/5
f 237/1/5 234/1/5 233/1/5
f 238/1/5 234/1/5 237/1/5
f 239/1/5 236/1/5 235/1/5
f 240/1/5 236/1/5 239/1/5
f 243/2/5 242/2/5 241/2/5
f 244/2/5 242/2/5 243/2/5
f 247/2/5 246/2/5 245/2/5
f 248/2/5 246/2/5 247/2/5
f 253/3/5 250/3/5 249/3/5
f 254/3/5 250/3/5 253/3/5
f 255/3/5 252/3/5 251/3/5
f 256/3/5 252/3/5 255/3/5
f 259/2/5 258/2/5 257/2/5
f 260/2/5 258/2/5 259/2/5
f 261/4/5 260/4/5 259/4/5
f 262/4/5 260/4/5 261/4/5
f 263/4/5 260/4/5 262/4/5
f 264/4/5 260/4/5 263/4/5
f 265/4/5 260/4/5 264/4/5
f 266/4/5 260/4/5 265/4/5
f 267/5/5 262/5/5 261/5/5
f 268/5/5 262/5/5 267/5/5
f 269/5/5 264/5/5 263/5/5
f 270/5/5 264/5/5 269/5/5
f 271/5/5 266/5/5 265/5/5
f 272/5/5 266/5/5 271/5/5
f 273/2/5 268/2/5 267/2/5
f 274/2/5 268/2/5 273/2/5
f 275/2/5 270/2/5 269/2/5
f 276/2/5 270/2/5 275/2/5
f 277/2/5 272/2/5 271/2/5
f 278/2/5 272/2/5 277/2/5
f 279/4/5 274/4/5 273/4/5
f 280/4/5 274/4/5 279/4/5
f 281/4/5 276/4/5 275/4/5
f 282/4/5 276/4/5 281/4/5
f 283/4/5 278/4/5 277/4/5
f 284/4/5 278/4/5 283/4/5
f 285/2/5 280/2/5 279/2/5
f 286/2/5 280/2/5 285/2/5
f 287/2/5 282/2/5 281/2/5
f 288/2/5 282/2/5 287/2/5
f 289/2/5 284/2/5 283/2/5
f 290/2/5 284/2/5 289/2/5
f 291/4/5 286/4/5 285/4/5
f 292/4/5 286/4/5 291/4/5
f 293/4/5 288/4/5 287/4/5
f 294/4/5 288/4/5 293/4/5
f 295/4/5 290/4/5 289/4/5
f 296/4/5 290/4/5 295/4/5
f 297/5/5 292/5/5 291/5/5
f 298/5/5 292/5/5 297/5/5
f 299/5/5 294/5/5 293/5/5
f 300/5/5 294/5/5 299/5/5
f 301/5/5 296/5/5 295/5/5
f 302/5/5 296/5/5 301/5/5
f 303/2/5 298/2/5 297/2/5
f 304/2/5 298/2/5 303/2/5
f 305/2/5 300/2/5 299/2/5
f 306/2/5 300/2/5 305/2/5
f 307/2/5 302/2/5 301/2/5
f 308/2/5 302/2/5 307/2/5
f 309/4/5 304/4/5 303/4/5
f 310/4/5 304/4/5 309/4/5
f 311/4/5 306/4/5 305/4/5
f 312/4/5 306/4/5 311/4/5
f 313/4/5 308/4/5 307/4/5
f 314/4/5 308/4/5 313/4/5
f 315/5/5 310/5/5 309/5/5
f 316/5/5 310/5/5 315/5/5
f 317/5/5 312/5/5 311/5/5
f 318/5/5 312/5/5 317/5/5
f 319/5/5 314/5/5 313/5/5
f 320/5/5 314/5/5 319/5/5
f 321/2/5 316/2/5 315/2/5
f 322/2/5 316/2/5 321/2/5
f 323/2/5 318/2/5 317/2/5
f 324/2/5 318/2/5 323/2/5
f 325/2/5 320/2/5 319/2/5
f 326/2/5 320/2/5 325/2/5
f 327/5/5 322/5/5 321/5/5
f 327/5/5 324/5/5 323/5/5
f 327/5/5 326/5/5 325/5/5
f 327/5/5 325/5/5 324/5/5
f 327/5/5 323/5/5 322/5/5
f 328/5/5 326/5/5 327/5/5
f 329/2/5 328/2/5 327/2/5
f 330/2/5 328/2/5 329/2/5
f 331/2/6 332/2/6 333/2/6
f 333/2/6 332/2/6 334/2/6
f 335/2/6 336/2/6 337/2/6
f 337/2/6 336/2/6 338/2/6
f 339/2/6 340/2/6 341/2/6
f 341/2/6 340/2/6 342/2/6
f 341/4/6 342/4/6 343/4/6
f 343/4/6 342/4/6 344/4/6
f 343/5/6 344/5/6 345/5/6
f 345/5/6 344/5/6 346/5/6
f 345/2/6 346/2/6 347/2/6
f 347/2/6 346/2/6 348/2/6
f 347/4/6 348/4/6 349/4/6
f 349/4/6 348/4/6 350/4/6
f 349/2/6 350/2/6 351/2/6
f 351/2/6 350/2/6 352/2/6
f 351/4/6 352/4/6 353/4/6
f 353/4/6 352/4/6 354/4/6
f 353/5/6 354/5/6 355/5/6
f 355/5/6 354/5/6 356/5/6
f 355/2/6 356/2/6 357/2/6
f 357/2/6 356/2/6 358/2/6
f 357/4/6 358/4/6 359/4/6
f 359/4/6 358/4/6 360/4/6
f 359/5/6 360/5/6 361/5/6
f 361/5/6 360/5/6 362/5/6
f 361/2/6 362/2/6 363/2/6
f 363/2/6 362/2/6 364/2/6
f 363/5/6 364/5/6 365/5/6
f 365/5/6 364/5/6 366/5/6
f 365/2/6 366/2/6 367/2/6
f 367/2/6 366/2/6 368/2/6
