# MagicaVoxel @ Ephtracy

# group
o 

# material
mtllib Tree.mtl
usemtl palette

# normals
vn -1 0 0
vn 1 0 0
vn 0 0 1
vn 0 0 -1
vn 0 -1 0
vn 0 1 0

# texcoords
vt 0.158203 0.5
vt 0.583984 0.5
vt 0.591797 0.5

# verts
v -0.7 0.7 0.7
v -0.7 0.7 -0.7
v -0.7 0.8 0.7
v -0.7 0.8 -0.7
v -0.7 0.9 0.7
v -0.7 0.9 -0.7
v -0.6 0.9 0.6
v -0.6 0.9 -0.6
v -0.6 1.1 0.6
v -0.6 1.1 -0.6
v -0.6 1.4 0.6
v -0.6 1.4 -0.6
v -0.6 1.5 0.6
v -0.6 1.5 -0.6
v -0.6 1.6 0.6
v -0.6 1.6 -0.6
v -0.5 1.1 0.5
v -0.5 1.1 -0.5
v -0.5 1.3 0.5
v -0.5 1.3 -0.5
v -0.5 1.6 0.5
v -0.5 1.6 -0.5
v -0.5 1.8 0.5
v -0.5 1.8 -0.5
v -0.4 1.3 0.4
v -0.4 1.3 -0.4
v -0.4 1.4 0.4
v -0.4 1.4 -0.4
v -0.4 1.8 0.4
v -0.4 1.8 -0.4
v -0.4 2 0.4
v -0.4 2 -0.4
v -0.3 2 0.3
v -0.3 2 -0.3
v -0.3 2.2 0.3
v -0.3 2.2 -0.3
v -0.2 2.2 0.2
v -0.2 2.2 -0.2
v -0.2 2.4 0.2
v -0.2 2.4 -0.2
v -0.1 0 0.1
v -0.1 0 -0.1
v -0.1 0.7 0.1
v -0.1 0.7 -0.1
v -0.1 2.4 0.1
v -0.1 2.4 -0.1
v -0.1 2.5 0.1
v -0.1 2.5 -0.1
v 0.1 0 0.1
v 0.1 0 -0.1
v 0.1 0.7 0.1
v 0.1 0.7 -0.1
v 0.1 2.4 0.1
v 0.1 2.4 -0.1
v 0.1 2.5 0.1
v 0.1 2.5 -0.1
v 0.2 2.2 0.2
v 0.2 2.2 -0.2
v 0.2 2.4 0.2
v 0.2 2.4 -0.2
v 0.3 2 0.3
v 0.3 2 -0.3
v 0.3 2.2 0.3
v 0.3 2.2 -0.3
v 0.4 1.3 0.4
v 0.4 1.3 -0.4
v 0.4 1.4 0.4
v 0.4 1.4 -0.4
v 0.4 1.8 0.4
v 0.4 1.8 -0.4
v 0.4 2 0.4
v 0.4 2 -0.4
v 0.5 1.1 0.5
v 0.5 1.1 -0.5
v 0.5 1.3 0.5
v 0.5 1.3 -0.5
v 0.5 1.6 0.5
v 0.5 1.6 -0.5
v 0.5 1.8 0.5
v 0.5 1.8 -0.5
v 0.6 0.9 0.6
v 0.6 0.9 -0.6
v 0.6 1.1 0.6
v 0.6 1.1 -0.6
v 0.6 1.4 0.6
v 0.6 1.4 -0.6
v 0.6 1.5 0.6
v 0.6 1.5 -0.6
v 0.6 1.6 0.6
v 0.6 1.6 -0.6
v 0.7 0.7 0.7
v 0.7 0.7 -0.7
v 0.7 0.8 0.7
v 0.7 0.8 -0.7
v 0.7 0.9 0.7
v 0.7 0.9 -0.7
v -0.7 0.7 0.7
v -0.7 0.8 0.7
v -0.7 0.9 0.7
v 0.7 0.7 0.7
v 0.7 0.8 0.7
v 0.7 0.9 0.7
v -0.6 0.9 0.6
v -0.6 1.1 0.6
v -0.6 1.4 0.6
v -0.6 1.5 0.6
v -0.6 1.6 0.6
v 0.6 0.9 0.6
v 0.6 1.1 0.6
v 0.6 1.4 0.6
v 0.6 1.5 0.6
v 0.6 1.6 0.6
v -0.5 1.1 0.5
v -0.5 1.3 0.5
v -0.5 1.6 0.5
v -0.5 1.8 0.5
v 0.5 1.1 0.5
v 0.5 1.3 0.5
v 0.5 1.6 0.5
v 0.5 1.8 0.5
v -0.4 1.3 0.4
v -0.4 1.4 0.4
v -0.4 1.8 0.4
v -0.4 2 0.4
v 0.4 1.3 0.4
v 0.4 1.4 0.4
v 0.4 1.8 0.4
v 0.4 2 0.4
v -0.3 2 0.3
v -0.3 2.2 0.3
v 0.3 2 0.3
v 0.3 2.2 0.3
v -0.2 2.2 0.2
v -0.2 2.4 0.2
v 0.2 2.2 0.2
v 0.2 2.4 0.2
v -0.1 0 0.1
v -0.1 0.7 0.1
v -0.1 2.4 0.1
v -0.1 2.5 0.1
v 0.1 0 0.1
v 0.1 0.7 0.1
v 0.1 2.4 0.1
v 0.1 2.5 0.1
v -0.1 0 -0.1
v -0.1 0.7 -0.1
v -0.1 2.4 -0.1
v -0.1 2.5 -0.1
v 0.1 0 -0.1
v 0.1 0.7 -0.1
v 0.1 2.4 -0.1
v 0.1 2.5 -0.1
v -0.2 2.2 -0.2
v -0.2 2.4 -0.2
v 0.2 2.2 -0.2
v 0.2 2.4 -0.2
v -0.3 2 -0.3
v -0.3 2.2 -0.3
v 0.3 2 -0.3
v 0.3 2.2 -0.3
v -0.4 1.3 -0.4
v -0.4 1.4 -0.4
v -0.4 1.8 -0.4
v -0.4 2 -0.4
v 0.4 1.3 -0.4
v 0.4 1.4 -0.4
v 0.4 1.8 -0.4
v 0.4 2 -0.4
v -0.5 1.1 -0.5
v -0.5 1.3 -0.5
v -0.5 1.6 -0.5
v -0.5 1.8 -0.5
v 0.5 1.1 -0.5
v 0.5 1.3 -0.5
v 0.5 1.6 -0.5
v 0.5 1.8 -0.5
v -0.6 0.9 -0.6
v -0.6 1.1 -0.6
v -0.6 1.4 -0.6
v -0.6 1.5 -0.6
v -0.6 1.6 -0.6
v 0.6 0.9 -0.6
v 0.6 1.1 -0.6
v 0.6 1.4 -0.6
v 0.6 1.5 -0.6
v 0.6 1.6 -0.6
v -0.7 0.7 -0.7
v -0.7 0.8 -0.7
v -0.7 0.9 -0.7
v 0.7 0.7 -0.7
v 0.7 0.8 -0.7
v 0.7 0.9 -0.7
v -0.1 0 0.1
v 0.1 0 0.1
v -0.1 0 -0.1
v 0.1 0 -0.1
v -0.7 0.7 0.7
v 0.7 0.7 0.7
v -0.1 0.7 0.1
v 0.1 0.7 0.1
v -0.1 0.7 -0.1
v 0.1 0.7 -0.1
v -0.7 0.7 -0.7
v 0.7 0.7 -0.7
v -0.6 1.4 0.6
v 0.6 1.4 0.6
v -0.4 1.4 0.4
v 0.4 1.4 0.4
v -0.4 1.4 -0.4
v 0.4 1.4 -0.4
v -0.6 1.4 -0.6
v 0.6 1.4 -0.6
v -0.7 0.9 0.7
v 0.7 0.9 0.7
v -0.6 0.9 0.6
v 0.6 0.9 0.6
v -0.6 0.9 -0.6
v 0.6 0.9 -0.6
v -0.7 0.9 -0.7
v 0.7 0.9 -0.7
v -0.6 1.1 0.6
v 0.6 1.1 0.6
v -0.5 1.1 0.5
v 0.5 1.1 0.5
v -0.5 1.1 -0.5
v 0.5 1.1 -0.5
v -0.6 1.1 -0.6
v 0.6 1.1 -0.6
v -0.5 1.3 0.5
v 0.5 1.3 0.5
v -0.4 1.3 0.4
v 0.4 1.3 0.4
v -0.4 1.3 -0.4
v 0.4 1.3 -0.4
v -0.5 1.3 -0.5
v 0.5 1.3 -0.5
v -0.6 1.6 0.6
v 0.6 1.6 0.6
v -0.5 1.6 0.5
v 0.5 1.6 0.5
v -0.5 1.6 -0.5
v 0.5 1.6 -0.5
v -0.6 1.6 -0.6
v 0.6 1.6 -0.6
v -0.5 1.8 0.5
v 0.5 1.8 0.5
v -0.4 1.8 0.4
v 0.4 1.8 0.4
v -0.4 1.8 -0.4
v 0.4 1.8 -0.4
v -0.5 1.8 -0.5
v 0.5 1.8 -0.5
v -0.4 2 0.4
v 0.4 2 0.4
v -0.3 2 0.3
v 0.3 2 0.3
v -0.3 2 -0.3
v 0.3 2 -0.3
v -0.4 2 -0.4
v 0.4 2 -0.4
v -0.3 2.2 0.3
v 0.3 2.2 0.3
v -0.2 2.2 0.2
v 0.2 2.2 0.2
v -0.2 2.2 -0.2
v 0.2 2.2 -0.2
v -0.3 2.2 -0.3
v 0.3 2.2 -0.3
v -0.2 2.4 0.2
v 0.2 2.4 0.2
v -0.1 2.4 0.1
v 0.1 2.4 0.1
v -0.1 2.4 -0.1
v 0.1 2.4 -0.1
v -0.2 2.4 -0.2
v 0.2 2.4 -0.2
v -0.1 2.5 0.1
v 0.1 2.5 0.1
v -0.1 2.5 -0.1
v 0.1 2.5 -0.1

# faces
f 3/3/1 2/3/1 1/3/1
f 4/3/1 2/3/1 3/3/1
f 5/2/1 4/2/1 3/2/1
f 6/2/1 4/2/1 5/2/1
f 9/2/1 8/2/1 7/2/1
f 10/2/1 8/2/1 9/2/1
f 13/3/1 12/3/1 11/3/1
f 14/3/1 12/3/1 13/3/1
f 15/2/1 14/2/1 13/2/1
f 16/2/1 14/2/1 15/2/1
f 19/2/1 18/2/1 17/2/1
f 20/2/1 18/2/1 19/2/1
f 23/2/1 22/2/1 21/2/1
f 24/2/1 22/2/1 23/2/1
f 27/3/1 26/3/1 25/3/1
f 28/3/1 26/3/1 27/3/1
f 31/2/1 30/2/1 29/2/1
f 32/2/1 30/2/1 31/2/1
f 35/2/1 34/2/1 33/2/1
f 36/2/1 34/2/1 35/2/1
f 39/2/1 38/2/1 37/2/1
f 40/2/1 38/2/1 39/2/1
f 43/1/1 42/1/1 41/1/1
f 44/1/1 42/1/1 43/1/1
f 47/2/1 46/2/1 45/2/1
f 48/2/1 46/2/1 47/2/1
f 49/1/2 50/1/2 51/1/2
f 51/1/2 50/1/2 52/1/2
f 53/2/2 54/2/2 55/2/2
f 55/2/2 54/2/2 56/2/2
f 57/2/2 58/2/2 59/2/2
f 59/2/2 58/2/2 60/2/2
f 61/2/2 62/2/2 63/2/2
f 63/2/2 62/2/2 64/2/2
f 65/3/2 66/3/2 67/3/2
f 67/3/2 66/3/2 68/3/2
f 69/2/2 70/2/2 71/2/2
f 71/2/2 70/2/2 72/2/2
f 73/2/2 74/2/2 75/2/2
f 75/2/2 74/2/2 76/2/2
f 77/2/2 78/2/2 79/2/2
f 79/2/2 78/2/2 80/2/2
f 81/2/2 82/2/2 83/2/2
f 83/2/2 82/2/2 84/2/2
f 85/3/2 86/3/2 87/3/2
f 87/3/2 86/3/2 88/3/2
f 87/2/2 88/2/2 89/2/2
f 89/2/2 88/2/2 90/2/2
f 91/3/2 92/3/2 93/3/2
f 93/3/2 92/3/2 94/3/2
f 93/2/2 94/2/2 95/2/2
f 95/2/2 94/2/2 96/2/2
f 100/3/3 98/3/3 97/3/3
f 101/2/3 99/2/3 98/2/3
f 101/3/3 98/3/3 100/3/3
f 102/2/3 99/2/3 101/2/3
f 108/2/3 104/2/3 103/2/3
f 109/2/3 104/2/3 108/2/3
f 110/3/3 106/3/3 105/3/3
f 111/2/3 107/2/3 106/2/3
f 111/3/3 106/3/3 110/3/3
f 112/2/3 107/2/3 111/2/3
f 117/2/3 114/2/3 113/2/3
f 118/2/3 114/2/3 117/2/3
f 119/2/3 116/2/3 115/2/3
f 120/2/3 116/2/3 119/2/3
f 125/3/3 122/3/3 121/3/3
f 126/3/3 122/3/3 125/3/3
f 127/2/3 124/2/3 123/2/3
f 128/2/3 124/2/3 127/2/3
f 131/2/3 130/2/3 129/2/3
f 132/2/3 130/2/3 131/2/3
f 135/2/3 134/2/3 133/2/3
f 136/2/3 134/2/3 135/2/3
f 141/1/3 138/1/3 137/1/3
f 142/1/3 138/1/3 141/1/3
f 143/2/3 140/2/3 139/2/3
f 144/2/3 140/2/3 143/2/3
f 145/1/4 146/1/4 149/1/4
f 149/1/4 146/1/4 150/1/4
f 147/2/4 148/2/4 151/2/4
f 151/2/4 148/2/4 152/2/4
f 153/2/4 154/2/4 155/2/4
f 155/2/4 154/2/4 156/2/4
f 157/2/4 158/2/4 159/2/4
f 159/2/4 158/2/4 160/2/4
f 161/3/4 162/3/4 165/3/4
f 165/3/4 162/3/4 166/3/4
f 163/2/4 164/2/4 167/2/4
f 167/2/4 164/2/4 168/2/4
f 169/2/4 170/2/4 173/2/4
f 173/2/4 170/2/4 174/2/4
f 171/2/4 172/2/4 175/2/4
f 175/2/4 172/2/4 176/2/4
f 177/2/4 178/2/4 182/2/4
f 182/2/4 178/2/4 183/2/4
f 179/3/4 180/3/4 184/3/4
f 180/2/4 181/2/4 185/2/4
f 184/3/4 180/3/4 185/3/4
f 185/2/4 181/2/4 186/2/4
f 187/3/4 188/3/4 190/3/4
f 188/2/4 189/2/4 191/2/4
f 190/3/4 188/3/4 191/3/4
f 191/2/4 189/2/4 192/2/4
f 195/1/5 194/1/5 193/1/5
f 196/1/5 194/1/5 195/1/5
f 199/3/5 198/3/5 197/3/5
f 200/3/5 198/3/5 199/3/5
f 201/3/5 199/3/5 197/3/5
f 202/3/5 198/3/5 200/3/5
f 203/3/5 201/3/5 197/3/5
f 203/3/5 202/3/5 201/3/5
f 204/3/5 198/3/5 202/3/5
f 204/3/5 202/3/5 203/3/5
f 207/3/5 206/3/5 205/3/5
f 208/3/5 206/3/5 207/3/5
f 209/3/5 207/3/5 205/3/5
f 210/3/5 206/3/5 208/3/5
f 211/3/5 209/3/5 205/3/5
f 211/3/5 210/3/5 209/3/5
f 212/3/5 206/3/5 210/3/5
f 212/3/5 210/3/5 211/3/5
f 213/2/6 214/2/6 215/2/6
f 215/2/6 214/2/6 216/2/6
f 213/2/6 215/2/6 217/2/6
f 216/2/6 214/2/6 218/2/6
f 213/2/6 217/2/6 219/2/6
f 217/2/6 218/2/6 219/2/6
f 218/2/6 214/2/6 220/2/6
f 219/2/6 218/2/6 220/2/6
f 221/2/6 222/2/6 223/2/6
f 223/2/6 222/2/6 224/2/6
f 221/2/6 223/2/6 225/2/6
f 224/2/6 222/2/6 226/2/6
f 221/2/6 225/2/6 227/2/6
f 225/2/6 226/2/6 227/2/6
f 226/2/6 222/2/6 228/2/6
f 227/2/6 226/2/6 228/2/6
f 229/2/6 230/2/6 231/2/6
f 231/2/6 230/2/6 232/2/6
f 229/2/6 231/2/6 233/2/6
f 232/2/6 230/2/6 234/2/6
f 229/2/6 233/2/6 235/2/6
f 233/2/6 234/2/6 235/2/6
f 234/2/6 230/2/6 236/2/6
f 235/2/6 234/2/6 236/2/6
f 237/2/6 238/2/6 239/2/6
f 239/2/6 238/2/6 240/2/6
f 237/2/6 239/2/6 241/2/6
f 240/2/6 238/2/6 242/2/6
f 237/2/6 241/2/6 243/2/6
f 241/2/6 242/2/6 243/2/6
f 242/2/6 238/2/6 244/2/6
f 243/2/6 242/2/6 244/2/6
f 245/2/6 246/2/6 247/2/6
f 247/2/6 246/2/6 248/2/6
f 245/2/6 247/2/6 249/2/6
f 248/2/6 246/2/6 250/2/6
f 245/2/6 249/2/6 251/2/6
f 249/2/6 250/2/6 251/2/6
f 250/2/6 246/2/6 252/2/6
f 251/2/6 250/2/6 252/2/6
f 253/2/6 254/2/6 255/2/6
f 255/2/6 254/2/6 256/2/6
f 253/2/6 255/2/6 257/2/6
f 256/2/6 254/2/6 258/2/6
f 253/2/6 257/2/6 259/2/6
f 257/2/6 258/2/6 259/2/6
f 258/2/6 254/2/6 260/2/6
f 259/2/6 258/2/6 260/2/6
f 261/2/6 262/2/6 263/2/6
f 263/2/6 262/2/6 264/2/6
f 261/2/6 263/2/6 265/2/6
f 264/2/6 262/2/6 266/2/6
f 261/2/6 265/2/6 267/2/6
f 265/2/6 266/2/6 267/2/6
f 266/2/6 262/2/6 268/2/6
f 267/2/6 266/2/6 268/2/6
f 269/2/6 270/2/6 271/2/6
f 271/2/6 270/2/6 272/2/6
f 269/2/6 271/2/6 273/2/6
f 272/2/6 270/2/6 274/2/6
f 269/2/6 273/2/6 275/2/6
f 273/2/6 274/2/6 275/2/6
f 274/2/6 270/2/6 276/2/6
f 275/2/6 274/2/6 276/2/6
f 277/2/6 278/2/6 279/2/6
f 279/2/6 278/2/6 280/2/6
