# MagicaVoxel @ Ephtracy

# group
o 

# material
mtllib weaponHanger-0.mtl
usemtl palette

# normals
vn -1 0 0
vn 1 0 0
vn 0 0 1
vn 0 0 -1
vn 0 -1 0
vn 0 1 0

# texcoords
vt 0.0996094 0.5
vt 0.158203 0.5
vt 0.201172 0.5
vt 0.224609 0.5

# verts
v -0.8 0 -0.7
v -0.8 0 -0.8
v -0.8 0.1 -0.7
v -0.8 0.1 -0.8
v -0.8 1.3 -0.6
v -0.8 1.3 -0.8
v -0.8 1.4 -0.6
v -0.8 1.4 -0.8
v -0.7 0 -0.5
v -0.7 0 -0.6
v -0.7 0 -0.7
v -0.7 0.1 -0.6
v -0.7 0.1 -0.7
v -0.7 0.1 -0.8
v -0.7 0.2 -0.5
v -0.7 0.2 -0.6
v -0.7 0.6 -0.5
v -0.7 0.6 -0.7
v -0.7 0.7 -0.5
v -0.7 0.7 -0.7
v -0.7 1.3 -0.7
v -0.7 1.3 -0.8
v -0.7 1.4 -0.6
v -0.7 1.4 -0.7
v -0.7 1.4 -0.8
v -0.7 1.5 -0.6
v -0.7 1.5 -0.7
v -0.7 1.6 -0.7
v -0.7 1.6 -0.8
v -0.6 0.2 -0.5
v -0.6 0.2 -0.6
v -0.6 0.3 -0.5
v -0.6 0.3 -0.6
v -0.5 0.3 -0.5
v -0.5 0.3 -0.6
v -0.5 0.4 -0.5
v -0.5 0.4 -0.6
v -0.3 1.5 -0.6
v -0.3 1.5 -0.8
v -0.3 1.6 -0.6
v -0.3 1.6 -0.8
v 0.3 1.4 -0.6
v 0.3 1.4 -0.8
v 0.3 1.5 -0.6
v 0.3 1.5 -0.8
v 0.6 0.1 -0.7
v 0.6 0.1 -0.8
v 0.6 0.6 -0.5
v 0.6 0.6 -0.7
v 0.6 0.7 -0.5
v 0.6 0.7 -0.7
v 0.6 1.3 -0.6
v 0.6 1.3 -0.7
v 0.6 1.4 -0.6
v 0.6 1.4 -0.7
v 0.6 1.4 -0.8
v 0.6 1.5 -0.7
v 0.6 1.5 -0.8
v 0.6 1.6 -0.7
v 0.6 1.6 -0.8
v -0.7 1.3 -0.6
v -0.7 1.3 -0.7
v -0.7 1.4 -0.6
v -0.7 1.4 -0.7
v -0.6 0.1 -0.7
v -0.6 0.1 -0.8
v -0.6 0.6 -0.5
v -0.6 0.6 -0.7
v -0.6 0.7 -0.5
v -0.6 0.7 -0.7
v -0.6 1.4 -0.7
v -0.6 1.4 -0.8
v -0.6 1.5 -0.7
v -0.6 1.5 -0.8
v -0.6 1.6 -0.7
v -0.6 1.6 -0.8
v -0.3 1.4 -0.6
v -0.3 1.4 -0.8
v -0.3 1.5 -0.6
v -0.3 1.5 -0.8
v 0.3 1.5 -0.6
v 0.3 1.5 -0.8
v 0.3 1.6 -0.6
v 0.3 1.6 -0.8
v 0.5 0.3 -0.5
v 0.5 0.3 -0.6
v 0.5 0.4 -0.5
v 0.5 0.4 -0.6
v 0.6 0.2 -0.5
v 0.6 0.2 -0.6
v 0.6 0.3 -0.5
v 0.6 0.3 -0.6
v 0.6 1.4 -0.6
v 0.6 1.4 -0.7
v 0.6 1.5 -0.6
v 0.6 1.5 -0.7
v 0.7 0 -0.5
v 0.7 0 -0.6
v 0.7 0 -0.7
v 0.7 0.1 -0.6
v 0.7 0.1 -0.7
v 0.7 0.1 -0.8
v 0.7 0.2 -0.5
v 0.7 0.2 -0.6
v 0.7 0.6 -0.5
v 0.7 0.6 -0.7
v 0.7 0.7 -0.5
v 0.7 0.7 -0.7
v 0.7 1.3 -0.7
v 0.7 1.3 -0.8
v 0.7 1.4 -0.7
v 0.7 1.4 -0.8
v 0.7 1.6 -0.7
v 0.7 1.6 -0.8
v 0.8 0 -0.7
v 0.8 0 -0.8
v 0.8 0.1 -0.7
v 0.8 0.1 -0.8
v 0.8 1.3 -0.6
v 0.8 1.3 -0.8
v 0.8 1.4 -0.6
v 0.8 1.4 -0.8
v -0.7 0 -0.5
v -0.7 0.2 -0.5
v -0.7 0.6 -0.5
v -0.7 0.7 -0.5
v -0.6 0 -0.5
v -0.6 0.2 -0.5
v -0.6 0.3 -0.5
v -0.6 0.6 -0.5
v -0.6 0.7 -0.5
v -0.5 0.2 -0.5
v -0.5 0.3 -0.5
v -0.5 0.4 -0.5
v 0.5 0.2 -0.5
v 0.5 0.3 -0.5
v 0.5 0.4 -0.5
v 0.6 0 -0.5
v 0.6 0.2 -0.5
v 0.6 0.3 -0.5
v 0.6 0.6 -0.5
v 0.6 0.7 -0.5
v 0.7 0 -0.5
v 0.7 0.2 -0.5
v 0.7 0.6 -0.5
v 0.7 0.7 -0.5
v -0.8 1.3 -0.6
v -0.8 1.4 -0.6
v -0.7 1.3 -0.6
v -0.7 1.4 -0.6
v -0.7 1.5 -0.6
v -0.3 1.4 -0.6
v -0.3 1.5 -0.6
v -0.3 1.6 -0.6
v 0.3 1.4 -0.6
v 0.3 1.5 -0.6
v 0.3 1.6 -0.6
v 0.6 1.3 -0.6
v 0.6 1.4 -0.6
v 0.6 1.5 -0.6
v 0.8 1.3 -0.6
v 0.8 1.4 -0.6
v -0.8 0 -0.7
v -0.8 0.1 -0.7
v -0.7 0 -0.7
v -0.7 0.1 -0.7
v -0.7 0.6 -0.7
v -0.7 0.7 -0.7
v -0.7 1.3 -0.7
v -0.7 1.4 -0.7
v -0.7 1.5 -0.7
v -0.7 1.6 -0.7
v -0.6 0.1 -0.7
v -0.6 0.6 -0.7
v -0.6 0.7 -0.7
v -0.6 1.4 -0.7
v -0.6 1.5 -0.7
v -0.6 1.6 -0.7
v 0.6 0.1 -0.7
v 0.6 0.6 -0.7
v 0.6 0.7 -0.7
v 0.6 1.3 -0.7
v 0.6 1.4 -0.7
v 0.6 1.5 -0.7
v 0.6 1.6 -0.7
v 0.7 0 -0.7
v 0.7 0.1 -0.7
v 0.7 0.6 -0.7
v 0.7 0.7 -0.7
v 0.7 1.3 -0.7
v 0.7 1.4 -0.7
v 0.7 1.6 -0.7
v 0.8 0 -0.7
v 0.8 0.1 -0.7
v -0.7 0.1 -0.6
v -0.7 0.2 -0.6
v -0.6 0.1 -0.6
v -0.6 0.2 -0.6
v -0.6 0.3 -0.6
v -0.5 0.2 -0.6
v -0.5 0.3 -0.6
v -0.5 0.4 -0.6
v 0.5 0.2 -0.6
v 0.5 0.3 -0.6
v 0.5 0.4 -0.6
v 0.6 0.1 -0.6
v 0.6 0.2 -0.6
v 0.6 0.3 -0.6
v 0.7 0.1 -0.6
v 0.7 0.2 -0.6
v -0.8 0 -0.8
v -0.8 0.1 -0.8
v -0.8 1.3 -0.8
v -0.8 1.4 -0.8
v -0.7 0.1 -0.8
v -0.7 1.3 -0.8
v -0.7 1.4 -0.8
v -0.7 1.6 -0.8
v -0.6 0.1 -0.8
v -0.6 1.4 -0.8
v -0.6 1.5 -0.8
v -0.6 1.6 -0.8
v -0.4 0 -0.8
v -0.4 0.1 -0.8
v -0.3 1.4 -0.8
v -0.3 1.5 -0.8
v -0.3 1.6 -0.8
v 0.3 1.4 -0.8
v 0.3 1.5 -0.8
v 0.3 1.6 -0.8
v 0.5 0 -0.8
v 0.5 0.1 -0.8
v 0.6 0.1 -0.8
v 0.6 1.4 -0.8
v 0.6 1.5 -0.8
v 0.6 1.6 -0.8
v 0.7 0.1 -0.8
v 0.7 1.3 -0.8
v 0.7 1.4 -0.8
v 0.7 1.6 -0.8
v 0.8 0 -0.8
v 0.8 0.1 -0.8
v 0.8 1.3 -0.8
v 0.8 1.4 -0.8
v -0.7 0 -0.5
v -0.6 0 -0.5
v 0.6 0 -0.5
v 0.7 0 -0.5
v -0.7 0 -0.6
v -0.6 0 -0.6
v 0.6 0 -0.6
v 0.7 0 -0.6
v -0.8 0 -0.7
v -0.7 0 -0.7
v -0.4 0 -0.7
v 0.5 0 -0.7
v 0.7 0 -0.7
v 0.8 0 -0.7
v -0.8 0 -0.8
v -0.4 0 -0.8
v 0.5 0 -0.8
v 0.8 0 -0.8
v -0.7 0.6 -0.5
v -0.6 0.6 -0.5
v 0.6 0.6 -0.5
v 0.7 0.6 -0.5
v -0.7 0.6 -0.7
v -0.6 0.6 -0.7
v 0.6 0.6 -0.7
v 0.7 0.6 -0.7
v -0.8 1.3 -0.6
v -0.7 1.3 -0.6
v 0.6 1.3 -0.6
v 0.8 1.3 -0.6
v -0.7 1.3 -0.7
v 0.6 1.3 -0.7
v 0.7 1.3 -0.7
v -0.8 1.3 -0.8
v -0.7 1.3 -0.8
v 0.7 1.3 -0.8
v 0.8 1.3 -0.8
v -0.7 1.4 -0.6
v -0.3 1.4 -0.6
v 0.3 1.4 -0.6
v 0.6 1.4 -0.6
v -0.7 1.4 -0.7
v -0.6 1.4 -0.7
v 0.6 1.4 -0.7
v -0.6 1.4 -0.8
v -0.3 1.4 -0.8
v 0.3 1.4 -0.8
v 0.6 1.4 -0.8
v -0.3 1.5 -0.6
v 0.3 1.5 -0.6
v -0.3 1.5 -0.8
v 0.3 1.5 -0.8
v -0.7 0.1 -0.6
v -0.6 0.1 -0.6
v 0.6 0.1 -0.6
v 0.7 0.1 -0.6
v -0.8 0.1 -0.7
v -0.7 0.1 -0.7
v -0.6 0.1 -0.7
v -0.4 0.1 -0.7
v 0.5 0.1 -0.7
v 0.6 0.1 -0.7
v 0.7 0.1 -0.7
v 0.8 0.1 -0.7
v -0.8 0.1 -0.8
v -0.7 0.1 -0.8
v -0.6 0.1 -0.8
v -0.4 0.1 -0.8
v 0.5 0.1 -0.8
v 0.6 0.1 -0.8
v 0.7 0.1 -0.8
v 0.8 0.1 -0.8
v -0.7 0.2 -0.5
v -0.6 0.2 -0.5
v 0.6 0.2 -0.5
v 0.7 0.2 -0.5
v -0.7 0.2 -0.6
v -0.6 0.2 -0.6
v 0.6 0.2 -0.6
v 0.7 0.2 -0.6
v -0.6 0.3 -0.5
v -0.5 0.3 -0.5
v 0.5 0.3 -0.5
v 0.6 0.3 -0.5
v -0.6 0.3 -0.6
v -0.5 0.3 -0.6
v 0.5 0.3 -0.6
v 0.6 0.3 -0.6
v -0.5 0.4 -0.5
v 0.5 0.4 -0.5
v -0.5 0.4 -0.6
v 0.5 0.4 -0.6
v -0.7 0.7 -0.5
v -0.6 0.7 -0.5
v 0.6 0.7 -0.5
v 0.7 0.7 -0.5
v -0.7 0.7 -0.7
v -0.6 0.7 -0.7
v 0.6 0.7 -0.7
v 0.7 0.7 -0.7
v -0.8 1.4 -0.6
v -0.7 1.4 -0.6
v 0.6 1.4 -0.6
v 0.8 1.4 -0.6
v -0.7 1.4 -0.7
v 0.6 1.4 -0.7
v 0.7 1.4 -0.7
v -0.8 1.4 -0.8
v -0.7 1.4 -0.8
v 0.7 1.4 -0.8
v 0.8 1.4 -0.8
v -0.7 1.5 -0.6
v -0.3 1.5 -0.6
v 0.3 1.5 -0.6
v 0.6 1.5 -0.6
v -0.7 1.5 -0.7
v -0.6 1.5 -0.7
v 0.6 1.5 -0.7
v -0.6 1.5 -0.8
v -0.3 1.5 -0.8
v 0.3 1.5 -0.8
v 0.6 1.5 -0.8
v -0.3 1.6 -0.6
v 0.3 1.6 -0.6
v -0.7 1.6 -0.7
v -0.6 1.6 -0.7
v 0.6 1.6 -0.7
v 0.7 1.6 -0.7
v -0.7 1.6 -0.8
v -0.6 1.6 -0.8
v -0.3 1.6 -0.8
v 0.3 1.6 -0.8
v 0.6 1.6 -0.8
v 0.7 1.6 -0.8

# faces
f 3/2/1 2/2/1 1/2/1
f 4/2/1 2/2/1 3/2/1
f 7/1/1 6/1/1 5/1/1
f 8/1/1 6/1/1 7/1/1
f 12/1/1 10/1/1 9/1/1
f 12/2/1 11/2/1 10/2/1
f 13/2/1 11/2/1 12/2/1
f 15/1/1 12/1/1 9/1/1
f 16/1/1 12/1/1 15/1/1
f 18/2/1 14/2/1 13/2/1
f 19/4/1 18/4/1 17/4/1
f 20/2/1 14/2/1 18/2/1
f 20/4/1 18/4/1 19/4/1
f 21/2/1 14/2/1 20/2/1
f 22/2/1 14/2/1 21/2/1
f 26/1/1 24/1/1 23/1/1
f 27/2/1 25/2/1 24/2/1
f 27/1/1 24/1/1 26/1/1
f 28/2/1 25/2/1 27/2/1
f 29/2/1 25/2/1 28/2/1
f 32/1/1 31/1/1 30/1/1
f 33/1/1 31/1/1 32/1/1
f 36/1/1 35/1/1 34/1/1
f 37/1/1 35/1/1 36/1/1
f 40/1/1 39/1/1 38/1/1
f 41/1/1 39/1/1 40/1/1
f 44/1/1 43/1/1 42/1/1
f 45/1/1 43/1/1 44/1/1
f 49/2/1 47/2/1 46/2/1
f 50/4/1 49/4/1 48/4/1
f 51/2/1 47/2/1 49/2/1
f 51/4/1 49/4/1 50/4/1
f 53/2/1 47/2/1 51/2/1
f 54/1/1 53/1/1 52/1/1
f 55/2/1 47/2/1 53/2/1
f 55/1/1 53/1/1 54/1/1
f 56/2/1 47/2/1 55/2/1
f 59/2/1 58/2/1 57/2/1
f 60/2/1 58/2/1 59/2/1
f 61/1/2 62/1/2 63/1/2
f 63/1/2 62/1/2 64/1/2
f 65/2/2 66/2/2 68/2/2
f 67/4/2 68/4/2 69/4/2
f 68/2/2 66/2/2 70/2/2
f 69/4/2 68/4/2 70/4/2
f 70/2/2 66/2/2 71/2/2
f 71/2/2 66/2/2 72/2/2
f 73/2/2 74/2/2 75/2/2
f 75/2/2 74/2/2 76/2/2
f 77/1/2 78/1/2 79/1/2
f 79/1/2 78/1/2 80/1/2
f 81/1/2 82/1/2 83/1/2
f 83/1/2 82/1/2 84/1/2
f 85/1/2 86/1/2 87/1/2
f 87/1/2 86/1/2 88/1/2
f 89/1/2 90/1/2 91/1/2
f 91/1/2 90/1/2 92/1/2
f 93/1/2 94/1/2 95/1/2
f 95/1/2 94/1/2 96/1/2
f 97/1/2 98/1/2 100/1/2
f 98/2/2 99/2/2 100/2/2
f 100/2/2 99/2/2 101/2/2
f 97/1/2 100/1/2 103/1/2
f 103/1/2 100/1/2 104/1/2
f 101/2/2 102/2/2 106/2/2
f 105/4/2 106/4/2 107/4/2
f 106/2/2 102/2/2 108/2/2
f 107/4/2 106/4/2 108/4/2
f 108/2/2 102/2/2 109/2/2
f 109/2/2 102/2/2 110/2/2
f 111/2/2 112/2/2 113/2/2
f 113/2/2 112/2/2 114/2/2
f 115/2/2 116/2/2 117/2/2
f 117/2/2 116/2/2 118/2/2
f 119/1/2 120/1/2 121/1/2
f 121/1/2 120/1/2 122/1/2
f 127/1/3 124/1/3 123/1/3
f 128/1/3 124/1/3 127/1/3
f 130/4/3 126/4/3 125/4/3
f 131/4/3 126/4/3 130/4/3
f 132/1/3 129/1/3 128/1/3
f 132/2/3 128/2/3 127/2/3
f 133/1/3 129/1/3 132/1/3
f 135/2/3 132/2/3 127/2/3
f 135/2/3 133/2/3 132/2/3
f 136/1/3 134/1/3 133/1/3
f 136/2/3 133/2/3 135/2/3
f 137/1/3 134/1/3 136/1/3
f 138/2/3 135/2/3 127/2/3
f 139/1/3 136/1/3 135/1/3
f 139/2/3 135/2/3 138/2/3
f 140/1/3 136/1/3 139/1/3
f 143/1/3 139/1/3 138/1/3
f 144/1/3 139/1/3 143/1/3
f 145/4/3 142/4/3 141/4/3
f 146/4/3 142/4/3 145/4/3
f 149/1/3 148/1/3 147/1/3
f 150/1/3 148/1/3 149/1/3
f 152/1/3 151/1/3 150/1/3
f 153/1/3 151/1/3 152/1/3
f 156/1/3 154/1/3 153/1/3
f 157/1/3 154/1/3 156/1/3
f 159/1/3 156/1/3 155/1/3
f 160/1/3 156/1/3 159/1/3
f 161/1/3 159/1/3 158/1/3
f 162/1/3 159/1/3 161/1/3
f 165/2/3 164/2/3 163/2/3
f 166/2/3 164/2/3 165/2/3
f 173/2/3 167/2/3 166/2/3
f 174/2/3 167/2/3 173/2/3
f 175/2/3 170/2/3 169/2/3
f 175/2/3 169/2/3 168/2/3
f 176/2/3 170/2/3 175/2/3
f 177/2/3 172/2/3 171/2/3
f 178/2/3 172/2/3 177/2/3
f 187/2/3 180/2/3 179/2/3
f 188/2/3 180/2/3 187/2/3
f 189/2/3 182/2/3 181/2/3
f 190/2/3 182/2/3 189/2/3
f 191/2/3 185/2/3 184/2/3
f 191/2/3 184/2/3 183/2/3
f 192/2/3 185/2/3 191/2/3
f 193/2/3 187/2/3 186/2/3
f 194/2/3 187/2/3 193/2/3
f 195/1/4 196/1/4 197/1/4
f 197/1/4 196/1/4 198/1/4
f 197/2/4 198/2/4 200/2/4
f 198/1/4 199/1/4 200/1/4
f 200/1/4 199/1/4 201/1/4
f 197/2/4 200/2/4 203/2/4
f 200/2/4 201/2/4 203/2/4
f 201/1/4 202/1/4 204/1/4
f 203/2/4 201/2/4 204/2/4
f 204/1/4 202/1/4 205/1/4
f 197/2/4 203/2/4 206/2/4
f 203/1/4 204/1/4 207/1/4
f 206/2/4 203/2/4 207/2/4
f 207/1/4 204/1/4 208/1/4
f 206/1/4 207/1/4 209/1/4
f 209/1/4 207/1/4 210/1/4
f 211/2/4 212/2/4 215/2/4
f 213/1/4 214/1/4 216/1/4
f 216/1/4 214/1/4 217/1/4
f 211/2/4 215/2/4 219/2/4
f 217/2/4 218/2/4 219/2/4
f 216/2/4 217/2/4 219/2/4
f 215/2/4 216/2/4 219/2/4
f 219/2/4 218/2/4 220/2/4
f 220/2/4 218/2/4 221/2/4
f 221/2/4 218/2/4 222/2/4
f 211/2/4 219/2/4 223/2/4
f 223/2/4 219/2/4 224/2/4
f 220/1/4 221/1/4 225/1/4
f 225/1/4 221/1/4 226/1/4
f 226/1/4 227/1/4 229/1/4
f 229/1/4 227/1/4 230/1/4
f 223/3/4 224/3/4 231/3/4
f 231/3/4 224/3/4 232/3/4
f 231/2/4 232/2/4 233/2/4
f 228/1/4 229/1/4 234/1/4
f 234/1/4 229/1/4 235/1/4
f 231/2/4 233/2/4 237/2/4
f 235/2/4 236/2/4 237/2/4
f 234/2/4 235/2/4 237/2/4
f 233/2/4 234/2/4 237/2/4
f 237/2/4 236/2/4 238/2/4
f 238/2/4 236/2/4 239/2/4
f 239/2/4 236/2/4 240/2/4
f 231/2/4 237/2/4 241/2/4
f 241/2/4 237/2/4 242/2/4
f 238/1/4 239/1/4 243/1/4
f 243/1/4 239/1/4 244/1/4
f 249/1/5 246/1/5 245/1/5
f 250/2/5 247/2/5 246/2/5
f 250/1/5 246/1/5 249/1/5
f 251/1/5 248/1/5 247/1/5
f 251/2/5 247/2/5 250/2/5
f 252/1/5 248/1/5 251/1/5
f 254/2/5 250/2/5 249/2/5
f 254/2/5 251/2/5 250/2/5
f 254/2/5 252/2/5 251/2/5
f 255/2/5 252/2/5 254/2/5
f 256/2/5 252/2/5 255/2/5
f 257/2/5 252/2/5 256/2/5
f 259/2/5 254/2/5 253/2/5
f 259/2/5 255/2/5 254/2/5
f 260/3/5 256/3/5 255/3/5
f 260/2/5 255/2/5 259/2/5
f 261/2/5 257/2/5 256/2/5
f 261/3/5 256/3/5 260/3/5
f 261/2/5 258/2/5 257/2/5
f 262/2/5 258/2/5 261/2/5
f 267/4/5 264/4/5 263/4/5
f 268/4/5 264/4/5 267/4/5
f 269/4/5 266/4/5 265/4/5
f 270/4/5 266/4/5 269/4/5
f 275/1/5 272/1/5 271/1/5
f 276/1/5 274/1/5 273/1/5
f 277/1/5 274/1/5 276/1/5
f 278/1/5 275/1/5 271/1/5
f 279/1/5 275/1/5 278/1/5
f 280/1/5 274/1/5 277/1/5
f 281/1/5 274/1/5 280/1/5
f 286/1/5 283/1/5 282/1/5
f 287/1/5 283/1/5 286/1/5
f 288/1/5 285/1/5 284/1/5
f 289/1/5 283/1/5 287/1/5
f 290/1/5 283/1/5 289/1/5
f 291/1/5 288/1/5 284/1/5
f 292/1/5 288/1/5 291/1/5
f 295/1/5 294/1/5 293/1/5
f 296/1/5 294/1/5 295/1/5
f 297/2/6 298/2/6 302/2/6
f 299/2/6 300/2/6 302/2/6
f 298/2/6 299/2/6 302/2/6
f 302/2/6 300/2/6 303/2/6
f 303/2/6 300/2/6 304/2/6
f 304/2/6 300/2/6 305/2/6
f 305/2/6 300/2/6 306/2/6
f 306/2/6 300/2/6 307/2/6
f 301/2/6 302/2/6 309/2/6
f 309/2/6 302/2/6 310/2/6
f 303/2/6 304/2/6 311/2/6
f 304/3/6 305/3/6 312/3/6
f 311/2/6 304/2/6 312/2/6
f 305/2/6 306/2/6 313/2/6
f 312/3/6 305/3/6 313/3/6
f 313/2/6 306/2/6 314/2/6
f 307/2/6 308/2/6 315/2/6
f 315/2/6 308/2/6 316/2/6
f 317/1/6 318/1/6 321/1/6
f 321/1/6 318/1/6 322/1/6
f 319/1/6 320/1/6 323/1/6
f 323/1/6 320/1/6 324/1/6
f 325/1/6 326/1/6 329/1/6
f 329/1/6 326/1/6 330/1/6
f 327/1/6 328/1/6 331/1/6
f 331/1/6 328/1/6 332/1/6
f 333/1/6 334/1/6 335/1/6
f 335/1/6 334/1/6 336/1/6
f 337/4/6 338/4/6 341/4/6
f 341/4/6 338/4/6 342/4/6
f 339/4/6 340/4/6 343/4/6
f 343/4/6 340/4/6 344/4/6
f 345/1/6 346/1/6 349/1/6
f 347/1/6 348/1/6 350/1/6
f 350/1/6 348/1/6 351/1/6
f 345/1/6 349/1/6 352/1/6
f 352/1/6 349/1/6 353/1/6
f 351/1/6 348/1/6 354/1/6
f 354/1/6 348/1/6 355/1/6
f 356/1/6 357/1/6 360/1/6
f 360/1/6 357/1/6 361/1/6
f 358/1/6 359/1/6 362/1/6
f 361/1/6 357/1/6 363/1/6
f 363/1/6 357/1/6 364/1/6
f 358/1/6 362/1/6 365/1/6
f 365/1/6 362/1/6 366/1/6
f 369/2/6 370/2/6 373/2/6
f 373/2/6 370/2/6 374/2/6
f 367/1/6 368/1/6 375/1/6
f 375/1/6 368/1/6 376/1/6
f 371/2/6 372/2/6 377/2/6
f 377/2/6 372/2/6 378/2/6
